<svg xmlns="http://www.w3.org/2000/svg" width="119.37" height="22.94" viewBox="0 0 119.37 22.94"><title>amazon-pay-logo</title><g id="Layer_2" data-name="Layer 2"><g id="content"><g id="lsguUU"><path d="M0,9.15c.12-.13.1-.31.14-.47A4,4,0,0,1,2.83,5.87,13.33,13.33,0,0,1,6,5.27c.24,0,.47-.05.71-.07s.25-.06.24-.25a9.84,9.84,0,0,0,0-1.13A1.39,1.39,0,0,0,5.62,2.56,1.84,1.84,0,0,0,3.44,3.91c-.11.41-.25.5-.66.46L.91,4.16C.43,4.09.32,3.93.43,3.45A4,4,0,0,1,2.83.56,6.82,6.82,0,0,1,7.7.35a3.33,3.33,0,0,1,2.5,3.41c0,1.66,0,3.32,0,5a3.24,3.24,0,0,0,.71,2.16,2.84,2.84,0,0,1,.19.27.45.45,0,0,1-.1.7l-1.6,1.39a.54.54,0,0,1-.86,0,4.81,4.81,0,0,1-1-1.18c-.12-.2-.2-.23-.38,0a4.48,4.48,0,0,1-2.55,1.44,5.22,5.22,0,0,1-2.16,0A3.12,3.12,0,0,1,.11,11c0-.13,0-.28-.11-.38ZM6.92,7.9c0-.2,0-.4,0-.6s0-.25-.23-.23a7.86,7.86,0,0,0-1.5.19,2.17,2.17,0,0,0-1.66,2.89,1.32,1.32,0,0,0,1.68,1A2.08,2.08,0,0,0,6.62,9.82,4.47,4.47,0,0,0,6.92,7.9Z" fill="#313d47"/><path d="M29.07,22.94a3.33,3.33,0,0,0-.93-.11,29.27,29.27,0,0,1-17.27-7.41,1,1,0,0,1-.14-.15.34.34,0,0,1,0-.44.35.35,0,0,1,.43-.11,3,3,0,0,1,.42.22,39.47,39.47,0,0,0,12.59,4.48A38.89,38.89,0,0,0,33,20a39.44,39.44,0,0,0,13.18-3,1,1,0,0,1,.66-.11.54.54,0,0,1,.31.9,1.59,1.59,0,0,1-.29.25A25.69,25.69,0,0,1,38.09,22a30,30,0,0,1-5.7.9c-.06,0-.12,0-.16.06Z" fill="#fc9803"/><path d="M16,2.21A3.24,3.24,0,0,1,19.38,0a3.13,3.13,0,0,1,2.8,2.22c.1-.19.18-.36.26-.52a3.46,3.46,0,0,1,5.68-.43A3.35,3.35,0,0,1,28.72,3a20.57,20.57,0,0,1,0,2.21q0,3.69,0,7.37c0,.56-.11.67-.68.67h-2c-.41,0-.56-.14-.56-.55q0-3.49,0-7c0-.44,0-.88,0-1.31a1.27,1.27,0,0,0-.78-1.26A1.53,1.53,0,0,0,23,3.52a2,2,0,0,0-.53,1.3,12.32,12.32,0,0,0-.06,1.4q0,3.22,0,6.45c0,.49-.13.61-.62.61h-2c-.42,0-.57-.15-.57-.58q0-3.78,0-7.55a3.61,3.61,0,0,0-.18-1.2A1.19,1.19,0,0,0,18,3.05a1.36,1.36,0,0,0-1.44.68,3.25,3.25,0,0,0-.35,1.58c0,2.42,0,4.84,0,7.25,0,.6-.11.7-.72.7h-2c-.39,0-.54-.15-.54-.54q0-6,0-11.91c0-.39.15-.54.54-.55h2c.37,0,.52.16.52.54S16,1.74,16,2.21Z" fill="#313d47"/><path d="M41,6.44C41,7.23,41,8,41,8.8a3.19,3.19,0,0,0,.68,2.08c.49.65.48.68-.13,1.2l-1.35,1.18a.54.54,0,0,1-.86,0,5,5,0,0,1-1-1.23c-.1-.17-.17-.18-.32,0a4.62,4.62,0,0,1-2.27,1.41,5.31,5.31,0,0,1-2.34,0,3.16,3.16,0,0,1-2.53-2.71A4.8,4.8,0,0,1,31,8.45,4.19,4.19,0,0,1,34.17,5.7a18.56,18.56,0,0,1,3.24-.48c.25,0,.35-.09.33-.35s0-.65,0-1a1.42,1.42,0,0,0-1.36-1.34,1.84,1.84,0,0,0-2.09,1.37c-.12.41-.24.5-.66.46l-2-.22c-.36,0-.48-.22-.41-.58A4,4,0,0,1,33.93.44,7,7,0,0,1,38.27.27,3.42,3.42,0,0,1,41,3.79c0,.88,0,1.77,0,2.66ZM37.72,7.88c0-.21,0-.42,0-.63s0-.19-.19-.18a6.16,6.16,0,0,0-1.85.29,2.19,2.19,0,0,0-1.31,3,1.33,1.33,0,0,0,1.56.84,2,2,0,0,0,1.42-1.21A4.44,4.44,0,0,0,37.72,7.88Z" fill="#313d47"/><path d="M84.78,11.77c0,.85,0,1.63,0,2.41,0,1.09,0,2.19,0,3.28,0,.46-.12.58-.58.58H82.86c-.35,0-.48-.13-.5-.48,0-.1,0-.2,0-.3q0-8.06,0-16.12c0-.11,0-.22,0-.33a.41.41,0,0,1,.44-.43c.4,0,.8,0,1.19,0a.48.48,0,0,1,.49.44c0,.26.09.52.13.79.12,0,.16-.08.23-.13A6.22,6.22,0,0,1,88.45,0a4.64,4.64,0,0,1,4.89,3.18A9.18,9.18,0,0,1,93.28,10a5.17,5.17,0,0,1-8.14,2.09Zm0-5.2c0,1.07,0,2.15,0,3.22a.39.39,0,0,0,.17.38,5.68,5.68,0,0,0,2.63,1,3,3,0,0,0,3.46-2,7.08,7.08,0,0,0,.39-2.49A7.27,7.27,0,0,0,91,3.87a2.73,2.73,0,0,0-2.1-1.79,5.19,5.19,0,0,0-4,1c-.13.09-.1.2-.1.32Q84.78,5,84.78,6.58Z" fill="#313d47"/><path d="M69.35,2.43c.11-.23.21-.46.33-.68A3.1,3.1,0,0,1,73.26.08a3.07,3.07,0,0,1,2.5,2.69A13.29,13.29,0,0,1,75.9,5q0,3.84,0,7.67c0,.51-.12.63-.63.63h-2c-.41,0-.56-.15-.56-.55q0-3.36,0-6.72a7.38,7.38,0,0,0-.13-1.84A1.3,1.3,0,0,0,71.36,3a1.49,1.49,0,0,0-1.45.85,4.21,4.21,0,0,0-.42,1.93c0,2.26,0,4.52,0,6.78,0,.08,0,.16,0,.24a.44.44,0,0,1-.46.45q-1.16,0-2.33,0a.41.41,0,0,1-.43-.44c0-.07,0-.14,0-.21q0-5.85,0-11.7c0-.53.12-.65.64-.65h1.82c.45,0,.58.14.58.59s0,1,0,1.56Z" fill="#313d47"/><path d="M64.49,6.83a8,8,0,0,1-1.2,4.42,4.91,4.91,0,0,1-8.55-.45,9.19,9.19,0,0,1-.87-4.9,8.13,8.13,0,0,1,.86-3.2,5,5,0,0,1,7.6-1.56,6.3,6.3,0,0,1,1.9,3.37A9.57,9.57,0,0,1,64.49,6.83ZM61,6.85c0-.37,0-.74,0-1.1a7.39,7.39,0,0,0-.39-2.25,1.4,1.4,0,0,0-1.29-1,1.47,1.47,0,0,0-1.51.8,3.52,3.52,0,0,0-.39,1.24,16.5,16.5,0,0,0,0,3.84,4.41,4.41,0,0,0,.52,1.88,1.44,1.44,0,0,0,2.49.08,2.8,2.8,0,0,0,.38-.84A9,9,0,0,0,61,6.85Z" fill="#313d47"/><path d="M48.34,2.86H44.79c-.9,0-.92,0-.92-.92,0-.39,0-.78,0-1.16s.14-.53.51-.53H52c.36,0,.5.15.51.51s0,.64,0,1A1.9,1.9,0,0,1,52.06,3c-1.32,1.89-2.63,3.78-3.95,5.68l-.2.31a11.41,11.41,0,0,1,1.93.12,7.68,7.68,0,0,1,2.37.78.89.89,0,0,1,.51.87c0,.53,0,1.05,0,1.58s-.26.68-.72.47a8.73,8.73,0,0,0-7.87,0c-.4.19-.67,0-.68-.39,0-.64,0-1.27,0-1.91a2,2,0,0,1,.4-1.16l4.29-6.2Z" fill="#313d47"/><path d="M103.56,11.67a7,7,0,0,1-2,1.22,5.51,5.51,0,0,1-3,.3,3.4,3.4,0,0,1-2.88-3.38A3.82,3.82,0,0,1,99,5.75a10.33,10.33,0,0,1,4.14.21c.35.08.36.08.35-.27a14.68,14.68,0,0,0-.05-2A1.71,1.71,0,0,0,101.77,2a9.7,9.7,0,0,0-3.43.21c-.45.09-.88.23-1.32.35s-.51,0-.53-.37c0-.12,0-.24,0-.36,0-.89,0-.94.85-1.22a11.17,11.17,0,0,1,5.44-.5,3.33,3.33,0,0,1,3,3.61c0,1.67,0,3.34,0,5q0,1.79,0,3.58c0,.47-.13.6-.6.6h-.93a.5.5,0,0,1-.56-.49c0-.13,0-.26-.06-.38Zm-.1-2.76c0-.13,0-.26,0-.39,0-.3.12-.67-.05-.87s-.55-.16-.84-.21a7.6,7.6,0,0,0-2.88,0,2,2,0,0,0-1.6,2.38,1.77,1.77,0,0,0,2.06,1.61,5.7,5.7,0,0,0,3.08-1.08.47.47,0,0,0,.23-.46C103.45,9.55,103.46,9.23,103.46,8.91Z" fill="#313d47"/><path d="M113.49,10.65l1.31-3.78,2-5.71c.25-.72.33-.78,1.09-.78h1c.46,0,.58.15.42.59-.25.7-.53,1.39-.8,2.08l-4.77,12.22a7.87,7.87,0,0,1-.84,1.61,3.17,3.17,0,0,1-2.37,1.43,5.08,5.08,0,0,1-1.92-.13.62.62,0,0,1-.55-.7c0-.24,0-.48,0-.72s.17-.5.54-.43a4.17,4.17,0,0,0,1.33,0,1.83,1.83,0,0,0,1.37-.89,15.23,15.23,0,0,0,1-2.33c.05-.13,0-.23-.07-.34L107.6,1.4a4.26,4.26,0,0,1-.2-.62.29.29,0,0,1,.31-.39h1.64c.39,0,.54.27.66.59l1.09,3,2.28,6.36Z" fill="#313d47"/><path d="M47.94,13.91a7.22,7.22,0,0,1,2.19.26c.56.17.68.31.68.89a8.7,8.7,0,0,1-1.23,4.39A6.17,6.17,0,0,1,48.35,21a1.78,1.78,0,0,1-.21.17c-.14.09-.3.21-.46.07s-.07-.29,0-.44a24.55,24.55,0,0,0,1.12-3.29,4.5,4.5,0,0,0,.15-1.06.75.75,0,0,0-.68-.87,8.07,8.07,0,0,0-2.46-.1c-.68,0-1.36.14-2,.2-.16,0-.36.07-.44-.14s.08-.34.23-.44A6.69,6.69,0,0,1,46.29,14,8.5,8.5,0,0,1,47.94,13.91Z" fill="#fc9803"/></g></g></g></svg>