<svg xmlns="http://www.w3.org/2000/svg" width="18" height="18" viewBox="0 0 18 18"><title>bespoke-question</title><g id="Layer_2" data-name="Layer 2"><g id="CUSTOM_-_LEATHER_TAB" data-name="CUSTOM - LEATHER TAB"><path d="M9,16.2A7.2,7.2,0,1,1,16.2,9,7.22,7.22,0,0,1,9,16.2ZM9,0a9,9,0,1,0,9,9A9,9,0,0,0,9,0Z" fill="#272423"/><path d="M9.84,10.27v1h-2V8.47h1A1.47,1.47,0,1,0,7.38,7h-2a3.43,3.43,0,0,1,6.85,0A3.39,3.39,0,0,1,9.84,10.27Z" fill="#272423"/><rect x="7.89" y="12.76" width="1.93" height="1.65" fill="#272423"/></g></g></svg>