<svg xmlns="http://www.w3.org/2000/svg" width="29.61" height="24.24" viewBox="0 0 29.61 24.24"><title>cart</title><g id="Layer_2" data-name="Layer 2"><g id="content"><path d="M22.47,24.24A3.22,3.22,0,1,1,25.68,21,3.22,3.22,0,0,1,22.47,24.24Zm0-5.43A2.22,2.22,0,1,0,24.68,21,2.22,2.22,0,0,0,22.47,18.81Z" fill="#969695"/><path d="M12.57,24.24A3.22,3.22,0,1,1,15.79,21,3.22,3.22,0,0,1,12.57,24.24Zm0-5.43A2.22,2.22,0,1,0,14.79,21,2.22,2.22,0,0,0,12.57,18.81Z" fill="#969695"/><path d="M25.17,15.94H12.45A4,4,0,0,1,8.65,13L4.28,1.52A.67.67,0,0,0,3.64,1H.5a.5.5,0,0,1,0-1H3.64A1.65,1.65,0,0,1,5.23,1.21L9.59,12.73a3,3,0,0,0,2.85,2.21H25.17a.5.5,0,0,1,0,1Z" fill="#969695"/><path d="M24.83,11.35H8.56a.5.5,0,0,1,0-1H24.83a2.36,2.36,0,0,0,2.25-1.62l1.54-4.61L28.54,4,6.5,4a.5.5,0,0,1-.5-.5A.48.48,0,0,1,6.5,3l22,.06a1.07,1.07,0,0,1,1,1.41L28,9A3.36,3.36,0,0,1,24.83,11.35Z" fill="#969695"/></g></g></svg>