<svg xmlns="http://www.w3.org/2000/svg" width="72.01" height="50.94" viewBox="0 0 72.01 50.94"><title>cashwrap-header-icon</title><g id="Layer_2" data-name="Layer 2"><g id="content"><path d="M58,0H0V44.27a6.67,6.67,0,0,0,6.67,6.67H65.34A6.67,6.67,0,0,0,72,44.27V0ZM70.15,34.19v2.63a5.26,5.26,0,0,1-5.26,5.26H7.12a5.26,5.26,0,0,1-5.26-5.26V34.19Zm0,9.85a5,5,0,0,1-5,5H6.9a5,5,0,0,1-5-5V41.81a6.77,6.77,0,0,0,4.94,2.14H65.21a6.77,6.77,0,0,0,4.94-2.14Zm0-35.19v18.4H1.86V1.86H70.15v7Z" fill="#fff"/></g></g></svg>