<svg xmlns="http://www.w3.org/2000/svg" width="32.61" height="32.61" viewBox="0 0 32.61 32.61"><title>footer-youtube</title><g id="Layer_2" data-name="Layer 2"><g id="content"><path d="M27.85,4.76a16.33,16.33,0,1,0,0,23.09A16.37,16.37,0,0,0,27.85,4.76Zm-.51,16.07A3.17,3.17,0,0,1,24.17,24s-3.17.32-7.88.32S8.52,24,8.52,24a3.17,3.17,0,0,1-3.17-3.17,39.14,39.14,0,0,1-.21-4.39,35.91,35.91,0,0,1,.21-4.28A3.17,3.17,0,0,1,8.52,9a53.5,53.5,0,0,1,7.83-.42A53.48,53.48,0,0,1,24.17,9a3.17,3.17,0,0,1,3.17,3.17,35.91,35.91,0,0,1,.21,4.28A39.14,39.14,0,0,1,27.34,20.84Z" fill="#eee"/><polygon points="13.96 19.3 19.99 16.13 13.96 12.96 13.96 19.3" fill="#eee"/></g></g></svg>