<svg xmlns="http://www.w3.org/2000/svg" width="32.61" height="32.61" viewBox="0 0 32.61 32.61"><title>footer-pinterest</title><g id="Layer_2" data-name="Layer 2"><g id="content"><path d="M27.85,4.76a16.33,16.33,0,1,0,0,23.09A16.37,16.37,0,0,0,27.85,4.76Zm-5.7,12a5.69,5.69,0,0,1-2.08,2.75,4.48,4.48,0,0,1-2.59.77,3.47,3.47,0,0,1-2.12-.79c-.14-.11-.3-.2-.47-.31-.06.3-.11.57-.17.83a14.88,14.88,0,0,1-.82,2.77,5.17,5.17,0,0,1-1.48,2L12.3,25c0-.25-.06-.48-.08-.7a11.45,11.45,0,0,1,.2-3.36c.28-1.3.62-2.59.94-3.89q.11-.47.22-1a.25.25,0,0,0,0-.16,3.36,3.36,0,0,1-.18-2.46A2.61,2.61,0,0,1,14.27,12a1.5,1.5,0,0,1,2,.15,1.24,1.24,0,0,1,.29.88,4.57,4.57,0,0,1-.23,1.31c-.2.71-.42,1.42-.62,2.14a2.51,2.51,0,0,0-.08,1,1.18,1.18,0,0,0,.9,1.05,2.31,2.31,0,0,0,2.56-.86,5.43,5.43,0,0,0,1.09-2.45,6.62,6.62,0,0,0,0-2.85,3.44,3.44,0,0,0-2.48-2.62,4.65,4.65,0,0,0-3.76.45A5,5,0,0,0,12,12a4.34,4.34,0,0,0-.62,2.81,2.52,2.52,0,0,0,.37,1,4.46,4.46,0,0,1,.29.54,1.51,1.51,0,0,1-.18,1.4.11.11,0,0,1-.1,0,2.68,2.68,0,0,1-2-1.75,4.58,4.58,0,0,1-.25-1.2,1.34,1.34,0,0,0,0-.14v-.9c0-.3.08-.6.14-.89a5.82,5.82,0,0,1,1.87-3.16,6.51,6.51,0,0,1,2.65-1.47A8.41,8.41,0,0,1,15.51,8,7.82,7.82,0,0,1,19,8.45a5.54,5.54,0,0,1,2.92,2.25,5.1,5.1,0,0,1,.75,2.18A8.16,8.16,0,0,1,22.15,16.81Z" fill="#eee"/></g></g></svg>