<svg xmlns="http://www.w3.org/2000/svg" width="32.61" height="32.61" viewBox="0 0 32.61 32.61"><title>footer-vimeo</title><g id="Layer_2" data-name="Layer 2"><g id="content"><path d="M27.85,4.76a16.33,16.33,0,1,0,0,23.09A16.37,16.37,0,0,0,27.85,4.76ZM24.31,15.34a16.13,16.13,0,0,1-2,3.39,30.7,30.7,0,0,1-3.52,4.06,10.42,10.42,0,0,1-2.43,1.79,4.51,4.51,0,0,1-1.67.5,2,2,0,0,1-1.77-.75,6.65,6.65,0,0,1-1.36-2.61c-.51-1.72-1-3.45-1.54-5.16a5.51,5.51,0,0,0-.87-1.82,1.83,1.83,0,0,0-.3-.3.6.6,0,0,0-.74-.07l-1.19.71L6,14l.21-.17c1-.8,1.92-1.6,2.9-2.38a8,8,0,0,1,1.76-1.11,2.11,2.11,0,0,1,2.82,1,6,6,0,0,1,.56,1.81c.27,1.46.44,2.93.84,4.36a6.32,6.32,0,0,0,.66,1.68,1.69,1.69,0,0,0,.22.28.52.52,0,0,0,.75.06,3.71,3.71,0,0,0,.85-.84,12.41,12.41,0,0,0,1.57-2.55,2.67,2.67,0,0,0,.26-1.28,1,1,0,0,0-1-1A3.72,3.72,0,0,0,17,14l-.23.07c.13-.32.23-.61.35-.89A5.45,5.45,0,0,1,19,10.78a4.62,4.62,0,0,1,2.1-.77,5.21,5.21,0,0,1,1.73,0,2.27,2.27,0,0,1,1.83,1.78A5.44,5.44,0,0,1,24.31,15.34Z" fill="#eee"/></g></g></svg>