<svg xmlns="http://www.w3.org/2000/svg" width="32.61" height="32.61" viewBox="0 0 32.61 32.61"><title>footer-twitter</title><g id="Layer_2" data-name="Layer 2"><g id="content"><path d="M27.85,4.76a16.33,16.33,0,1,0,0,23.09A16.37,16.37,0,0,0,27.85,4.76ZM22.37,13.2q0,.2,0,.4a8.9,8.9,0,0,1-13.7,7.5,6.32,6.32,0,0,0,4.63-1.3,3.13,3.13,0,0,1-2.92-2.17,3.14,3.14,0,0,0,1.41-.05A3.13,3.13,0,0,1,9.3,14.51v0a3.12,3.12,0,0,0,1.42.39,3.13,3.13,0,0,1-1-4.18A8.88,8.88,0,0,0,16.19,14a3.13,3.13,0,0,1,5.33-2.85,6.27,6.27,0,0,0,2-.76,3.14,3.14,0,0,1-1.38,1.73,6.26,6.26,0,0,0,1.8-.49A6.36,6.36,0,0,1,22.37,13.2Z" fill="#eee"/></g></g></svg>