<svg xmlns="http://www.w3.org/2000/svg" width="44.95" height="45.03" viewBox="0 0 44.95 45.03"><title>magnify-product</title><g id="Layer_2" data-name="Layer 2"><g id="content"><path d="M44.59,42.94,31.72,30A18.2,18.2,0,0,0,30.9,5.29,18.09,18.09,0,0,0,0,18.09,18.09,18.09,0,0,0,30,31.73L42.85,44.67a1.22,1.22,0,0,0,1.74-1.73ZM7,29.17A15.67,15.67,0,0,1,29.17,7a15.75,15.75,0,0,1,0,22.16h0A15.71,15.71,0,0,1,7,29.17Z" fill="#fff"/><polygon points="22.14 11.78 18.26 15.65 14.46 11.86 12.15 14.17 15.96 17.96 12.07 21.84 14.38 24.15 18.26 20.26 22.07 24.05 24.36 21.76 20.56 17.95 24.43 14.07 22.14 11.78" fill="#fff"/></g></g></svg>