<svg xmlns="http://www.w3.org/2000/svg" width="18" height="18" viewBox="0 0 18 18"><title>overlay-close</title><g id="Layer_2" data-name="Layer 2"><g id="content"><path d="M10,9l7.86-7.87A.47.47,0,0,0,18,.77a.81.81,0,0,0-.25-.52A.81.81,0,0,0,17.2,0a.46.46,0,0,0-.33.12L9,8,1.14.12A.46.46,0,0,0,.81,0,.81.81,0,0,0,.25.25a.66.66,0,0,0-.12.89L8,9,.12,16.87a.66.66,0,0,0,.12.89A.81.81,0,0,0,.81,18a.46.46,0,0,0,.33-.12L9,10l7.86,7.87a.46.46,0,0,0,.33.12.86.86,0,0,0,.81-.77.47.47,0,0,0-.12-.37Z" fill="#fff"/></g></g></svg>