<svg xmlns="http://www.w3.org/2000/svg" width="107" height="26.11" viewBox="0 0 107 26.11"><title>paypal-logo</title><g id="Layer_2" data-name="Layer 2"><g id="content"><g id="rmxsuJ"><path d="M13.74,0a2.74,2.74,0,0,0,.95.15,10,10,0,0,1,1.95.44,4.76,4.76,0,0,1,3,2.58,4.71,4.71,0,0,1,.37,3c0,.16,0,.34-.05.51-.06.32-.09.65-.17,1a9.91,9.91,0,0,1-1.53,3.52,7.28,7.28,0,0,1-2.7,2.31,10.3,10.3,0,0,1-4.51,1H8.26a1.19,1.19,0,0,0-1.34,1.05c-.1.64-.21,1.28-.31,1.92s-.19,1.09-.27,1.64-.16,1.18-.26,1.77c-.12.77-.26,1.54-.39,2.31h-5A.76.76,0,0,1,0,22.71v-.43c.05,0,0-.09.05-.14.07-.52.14-1,.23-1.55.15-1,.32-1.92.47-2.87S1,16,1.14,15.15s.32-1.93.47-2.9S1.9,10.33,2,9.37s.28-1.72.42-2.59.26-1.68.39-2.51c.16-1,.33-2,.47-3A1.33,1.33,0,0,1,4.35,0Z" fill="#203a83"/><path d="M37.85,16.8H36.54a.83.83,0,0,0-.89.77c-.21,1.32-.42,2.65-.63,4a.8.8,0,0,1-.87.73H31.46c-.44,0-.62-.24-.56-.68l1.47-9.37q.44-2.82.9-5.64a.8.8,0,0,1,.89-.75c2.07,0,4.13,0,6.2,0A6.54,6.54,0,0,1,43,6.38a3.35,3.35,0,0,1,2.13,2.84,7.42,7.42,0,0,1-1.41,5.37,5.63,5.63,0,0,1-3.88,2.1A11.57,11.57,0,0,1,37.85,16.8Zm-.43-3.29h0c.33,0,.66,0,1-.05A2.21,2.21,0,0,0,40.56,12a3.73,3.73,0,0,0,.18-1.13,1.45,1.45,0,0,0-1.28-1.59,9.62,9.62,0,0,0-2-.11c-.39,0-.56.14-.62.52-.2,1.23-.38,2.45-.58,3.68,0,.17,0,.2.18.19Z" fill="#203a83"/><path d="M79.64,5.85h2.87a6.78,6.78,0,0,1,2.74.54,3.4,3.4,0,0,1,2.13,3,7.65,7.65,0,0,1-1.13,4.82,5.49,5.49,0,0,1-3.85,2.47,9.5,9.5,0,0,1-1.84.16H78.73a.8.8,0,0,0-.84.71q-.33,2-.64,4c-.09.58-.24.72-.82.72H73.72c-.47,0-.66-.24-.58-.7q.56-3.52,1.11-7,.62-3.94,1.25-7.89a.84.84,0,0,1,1-.8h3.19Zm.15,7.66A8.68,8.68,0,0,0,81,13.42,2.08,2.08,0,0,0,82.77,12,3.66,3.66,0,0,0,83,10.79a1.43,1.43,0,0,0-1.23-1.55,9,9,0,0,0-2.16-.11c-.27,0-.41.2-.45.46-.2,1.24-.39,2.49-.59,3.73,0,.16,0,.2.18.2Z" fill="#019bda"/><path d="M5.69,23.21c.13-.77.27-1.54.39-2.31.09-.59.17-1.18.26-1.77s.18-1.09.27-1.64.21-1.28.31-1.92a1.19,1.19,0,0,1,1.34-1.05H11a10.3,10.3,0,0,0,4.51-1,7.28,7.28,0,0,0,2.7-2.31,9.91,9.91,0,0,0,1.53-3.52c.08-.32.11-.64.17-1A3.12,3.12,0,0,1,21.32,7.8a3.89,3.89,0,0,1,.78,2.11A9.19,9.19,0,0,1,20.44,16a6.72,6.72,0,0,1-4.25,2.59,12.85,12.85,0,0,1-2.85.23c-.8,0-1.14.25-1.27,1-.27,1.64-.53,3.28-.79,4.92,0,.15,0,.3-.08.45a1,1,0,0,1-1,.85H6.07c-.53,0-.77-.3-.69-.84C5.49,24.58,5.63,23.9,5.69,23.21Z" fill="#019bda"/><path d="M95.15,21.05c-.33.21-.61.45-.92.64a5.57,5.57,0,0,1-4.82.57,4.07,4.07,0,0,1-2.76-3.34,6.7,6.7,0,0,1,5-7.72,6.6,6.6,0,0,1,3.21.09,2.59,2.59,0,0,1,1.65,1.24c0-.28.09-.51.13-.73s.21-.47.54-.48H99.9a.5.5,0,0,1,.53.63q-.57,3.63-1.15,7.25c-.11.72-.23,1.45-.34,2.17s-.37.91-1,.91H95.66c-.47,0-.64-.2-.59-.67C95.09,21.42,95.12,21.24,95.15,21.05Zm-1.52-7c-.16,0-.32,0-.48,0a3.19,3.19,0,0,0-2.74,3,2.13,2.13,0,0,0,1.08,2.19,3,3,0,0,0,1.88.24A3.17,3.17,0,0,0,96,15.79,2.22,2.22,0,0,0,93.63,14.05Z" fill="#019bda"/><path d="M52.94,20.93a5.3,5.3,0,0,1-2.15,1.32A5.42,5.42,0,0,1,46.66,22a4.15,4.15,0,0,1-2.25-3.15A6.73,6.73,0,0,1,49,11.31a6.47,6.47,0,0,1,3.83,0,2.48,2.48,0,0,1,1.47,1.18c0-.29.08-.53.13-.76a.48.48,0,0,1,.51-.45h2.79c.38,0,.56.25.5.65-.11.72-.23,1.43-.34,2.14-.37,2.33-.74,4.66-1.1,7-.13.84-.25,1.22-1.34,1.18-.67,0-1.34,0-2,0-.43,0-.62-.21-.57-.65C52.85,21.42,52.89,21.21,52.94,20.93Zm-1.59-6.87a2.74,2.74,0,0,0-.75.09,3.22,3.22,0,0,0-2.43,3.25,2.05,2.05,0,0,0,1.49,2,3.33,3.33,0,0,0,1.46.09,3.17,3.17,0,0,0,2.63-3.67A2.2,2.2,0,0,0,51.35,14.06Z" fill="#203a83"/><path d="M65.35,17.46,67,15c.72-1.06,1.44-2.11,2.15-3.17a1,1,0,0,1,.94-.5c.86,0,1.72,0,2.58,0a.53.53,0,0,1,.54.26.54.54,0,0,1-.09.6L63.8,25.68a.91.91,0,0,1-.81.43H60.31a.51.51,0,0,1-.52-.26.54.54,0,0,1,.08-.6l2.77-3.89A.4.4,0,0,0,62.7,21q-1.49-4.35-3-8.71c0-.1-.07-.2-.1-.31a.46.46,0,0,1,.43-.61c1,0,2,0,3,0,.39,0,.6.3.71.67L65,16.13Z" fill="#203a83"/><path d="M105.15,5.84h1.23c.48,0,.67.21.6.69-.16,1.06-.34,2.12-.5,3.17l-1,6.64c-.27,1.73-.54,3.46-.82,5.19a.82.82,0,0,1-.9.74h-2.25c-.46,0-.66-.22-.59-.68.18-1.18.37-2.36.56-3.55l1-6.67q.4-2.54.8-5.08a.49.49,0,0,1,.55-.46Z" fill="#019bda"/></g></g></g></svg>