<svg xmlns="http://www.w3.org/2000/svg" width="18.74" height="24.05" viewBox="0 0 18.74 24.05"><title>profile</title><g id="Layer_2" data-name="Layer 2"><g id="content"><path d="M18,24.05H.72l-.05-.44S.34,21.08,0,18.24a3.65,3.65,0,0,1,.9-3c1.38-1.55,4.22-2.33,8.43-2.33h0c4.23,0,7.07.78,8.45,2.33a3.65,3.65,0,0,1,.9,3c-.32,2.85-.63,5.38-.63,5.38Zm-16.42-1H17.14c.1-.84.34-2.79.58-4.92a2.66,2.66,0,0,0-.65-2.18c-.82-.91-2.81-2-7.68-2s-6.89,1.09-7.71,2A2.66,2.66,0,0,0,1,18.13C1.26,20.26,1.5,22.21,1.6,23.05Z" fill="#969695"/><path d="M9.37,10.47A5.24,5.24,0,1,1,14.6,5.24,5.24,5.24,0,0,1,9.37,10.47ZM9.37,1A4.24,4.24,0,1,0,13.6,5.24,4.24,4.24,0,0,0,9.37,1Z" fill="#969695"/></g></g></svg>