<svg xmlns="http://www.w3.org/2000/svg" width="53.77" height="32.19" viewBox="0 0 53.77 32.19"><title>random</title><g id="Layer_2" data-name="Layer 2"><g id="CUSTOM_-_LEATHER_TAB" data-name="CUSTOM - LEATHER TAB"><path d="M35.62,28a2.47,2.47,0,1,1,1.54-3.13A2.47,2.47,0,0,1,35.62,28Zm1-9.83a2.47,2.47,0,1,1,3.13,1.54A2.47,2.47,0,0,1,36.58,18.13Zm3.73-7.55a2.47,2.47,0,1,1,3.13,1.54A2.47,2.47,0,0,1,40.3,10.58ZM53.54,21.11,48.22,5.43A4.37,4.37,0,0,0,42.7,2.71L28,7.7l4.07,4.07a6.07,6.07,0,0,1,0,8.58L28,24.43l1.63,4.8A4.37,4.37,0,0,0,35.13,32l15.68-5.32a4.38,4.38,0,0,0,2.73-5.53Z"/><path d="M14.31,27a2.47,2.47,0,1,1,3.49,0A2.47,2.47,0,0,1,14.31,27Zm8.27-12.88a2.47,2.47,0,0,1,3.49,3.49,2.81,2.81,0,0,1-.3.26,2.47,2.47,0,0,1-3.19-3.75Zm-17,4.16a2.47,2.47,0,1,1,3.5,0A2.47,2.47,0,0,1,5.59,18.32ZM14.31,5.89a2.47,2.47,0,1,1,0,3.49A2.47,2.47,0,0,1,14.31,5.89ZM30.84,13,19.14,1.27a4.37,4.37,0,0,0-6.16,0L1.27,13a4.37,4.37,0,0,0,0,6.16L13,30.84a4.37,4.37,0,0,0,6.16,0L30.84,19.14a4.37,4.37,0,0,0,0-6.16Z"/></g></g></svg>