<svg id="Layer_1" data-name="Layer 1" xmlns="http://www.w3.org/2000/svg" width="36" height="29" viewBox="0 0 36 29"><title>reflex-icon-black</title><path d="M29,0H0V21.56H7V25H29V21.56h7V0ZM7.94.91H28.06V20.65H7.94Zm-7,19.74V.91H7V20.65Zm27.13,3.44H7.94V21.56H28.06Zm7-3.44H29V.91h6.08Z"/><path d="M21.6,8.45H19.11l1.54-3.52a.42.42,0,0,0,0-.4.44.44,0,0,0-.36-.19H17.06a.43.43,0,0,0-.36.25l-2.7,6a.42.42,0,0,0,0,.4.44.44,0,0,0,.36.19h1.46l-1.69,5.44a.41.41,0,0,0,0,.39.45.45,0,0,0,.37.2.43.43,0,0,0,.32-.15l7-7.93A.42.42,0,0,0,22,8.7.43.43,0,0,0,21.6,8.45Zm-6.19,6.91,1.5-4.42a.42.42,0,0,0,0-.39.44.44,0,0,0-.36-.19H15.07l2.31-5.17h2.2L18.05,8.7a.42.42,0,0,0,0,.4.44.44,0,0,0,.36.19H20.6Z"/></svg>