<svg xmlns="http://www.w3.org/2000/svg" width="72.01" height="50.96" viewBox="0 0 72.01 50.96"><title>reflex-header-icon</title><g id="Layer_2" data-name="Layer 2"><g id="content"><path d="M58,0H0V43.94H14v7H58v-7H72V0ZM15.89,1.86H56.12V42.09H15.89Zm-14,40.23V1.86H14V42.09Zm54.26,7H15.89V43.94H56.12Zm14-7H58V1.86H70.15Z" fill="#fff"/><path d="M43.2,17.22h-5L41.3,10a.87.87,0,0,0-.8-1.21H34.13a.87.87,0,0,0-.72.52L28,21.63a.87.87,0,0,0,.8,1.22h2.92L28.36,33.94a.84.84,0,0,0,.07.8.9.9,0,0,0,.74.4.85.85,0,0,0,.64-.3l14-16.17a.87.87,0,0,0-.64-1.45ZM30.82,31.3l3-9A.87.87,0,0,0,33,21.11H30.15l4.63-10.54h4.39l-3.07,7.17A.87.87,0,0,0,36.9,19h4.3Z" fill="#fff"/></g></g></svg>