<svg xmlns="http://www.w3.org/2000/svg" width="15.24" height="15.24" viewBox="0 0 15.24 15.24"><title>share-link</title><g id="Layer_2" data-name="Layer 2"><g id="content"><path d="M13.83,1.41a4.81,4.81,0,0,0-6.8,0A1.09,1.09,0,1,0,8.57,3a2.63,2.63,0,0,1,3.72,3.72l-2,2a1.68,1.68,0,0,1-2.4,0,1.09,1.09,0,0,0-1.54,1.54,3.88,3.88,0,0,0,5.48,0l2-2a4.8,4.8,0,0,0,0-6.8ZM6.67,12.29A2.63,2.63,0,0,1,2.95,8.57l2-2a1.71,1.71,0,0,1,2.4,0A1.09,1.09,0,0,0,8.87,5.07a3.89,3.89,0,0,0-5.48,0l-2,2a4.81,4.81,0,0,0,6.81,6.8,1.09,1.09,0,1,0-1.54-1.54Z" fill="#fff"/></g></g></svg>