<svg xmlns="http://www.w3.org/2000/svg" width="32.61" height="32.61" viewBox="0 0 32.61 32.61"><title>share-twitter-black</title><g id="Layer_2" data-name="Layer 2"><g id="CUSTOM_-_LEATHER_TAB" data-name="CUSTOM - LEATHER TAB"><path d="M27.85,4.76a16.33,16.33,0,1,0,0,23.09A16.37,16.37,0,0,0,27.85,4.76ZM22.37,13.2q0,.2,0,.4a8.9,8.9,0,0,1-13.7,7.5,6.37,6.37,0,0,0,.75,0,6.28,6.28,0,0,0,3.89-1.34,3.13,3.13,0,0,1-2.92-2.17,3.14,3.14,0,0,0,1.41-.05A3.13,3.13,0,0,1,9.3,14.51v0a3.12,3.12,0,0,0,1.42.39,3.13,3.13,0,0,1-1-4.18A8.88,8.88,0,0,0,16.19,14a3.13,3.13,0,0,1,5.33-2.85,6.27,6.27,0,0,0,2-.76,3.14,3.14,0,0,1-1.38,1.73,6.26,6.26,0,0,0,1.8-.49A6.36,6.36,0,0,1,22.37,13.2Z" fill="#272423"/><path d="M23.51,10.34a6.27,6.27,0,0,1-2,.76A3.13,3.13,0,0,0,16.19,14a8.88,8.88,0,0,1-6.45-3.27,3.13,3.13,0,0,0,1,4.18,3.12,3.12,0,0,1-1.42-.39v0a3.13,3.13,0,0,0,2.51,3.07,3.14,3.14,0,0,1-1.41.05,3.13,3.13,0,0,0,2.92,2.17,6.28,6.28,0,0,1-3.89,1.34,6.37,6.37,0,0,1-.75,0,8.9,8.9,0,0,0,13.7-7.5q0-.2,0-.4a6.36,6.36,0,0,0,1.56-1.62,6.26,6.26,0,0,1-1.8.49A3.14,3.14,0,0,0,23.51,10.34Z" fill="#fff"/></g></g></svg>