<svg xmlns="http://www.w3.org/2000/svg" width="32.61" height="32.61" viewBox="0 0 32.61 32.61"><title>share-facebook-teal</title><g id="Layer_2" data-name="Layer 2"><g id="content"><path d="M27.85,4.76a16.33,16.33,0,1,0,0,23.09A16.37,16.37,0,0,0,27.85,4.76Zm-8.06,6.08H18.35c-1.13,0-1.34.54-1.34,1.32v1.73H19.7l-.35,2.71H17v7h-2.8v-7H11.87V13.89h2.34v-2A3.27,3.27,0,0,1,17.7,8.31a19.23,19.23,0,0,1,2.09.11Z" fill="#10bab5"/><path d="M14.21,11.89v2H11.87v2.71h2.34v7H17v-7h2.34l.35-2.71H17V12.16c0-.79.22-1.32,1.34-1.32h1.44V8.42a19.23,19.23,0,0,0-2.09-.11A3.27,3.27,0,0,0,14.21,11.89Z" fill="#fff"/></g></g></svg>