<svg xmlns="http://www.w3.org/2000/svg" width="72.01" height="50.96" viewBox="0 0 72.01 50.96"><title>special-header-icon</title><g id="Layer_2" data-name="Layer 2"><g id="content"><path d="M58,0H0V43.94H14v7H58v-7H72V0ZM14,42.09H1.86V1.86H14Zm16.7-5.53-3.92-3.92-1.36-1.36-3.92-3.92L20.17,26l-3.92-3.91,3.92-3.91,1.36-1.36,3.92-3.92,1.36-1.36,3.92-3.92,1.36-1.36L36,2.35l3.91,3.91,1.36,1.36,3.92,3.92,1.36,1.36,3.92,3.92,1.36,1.36,3.91,3.91L51.83,26l-1.36,1.36-3.92,3.92-1.36,1.36-3.92,3.92-1.36,1.36L36,41.84l-3.92-3.91Zm-6.64-25-3.92,3.92-3.92-3.92,3.92-3.92ZM21.53,6.26l3.92-3.92,3.92,3.92-3.92,3.92ZM15.89,24.45l2.92,2.92-2.92,2.92Zm0-10.55,2.92,2.92-2.92,2.92Zm4.28,14.84,3.92,3.92-3.92,3.92-3.92-3.92ZM25.45,34l3.92,3.92-3.92,3.92-3.92-3.92ZM42.64,6.26l3.92-3.92,3.92,3.92-3.92,3.92Zm13.48,24L53.2,27.37l2.92-2.92Zm0-10.55L53.2,16.81l2.92-2.92ZM46.56,34l3.92,3.92-3.92,3.92-3.92-3.92Zm1.36-1.36,3.92-3.92,3.92,3.92-3.92,3.92Zm3.92-17.19-3.92-3.92,3.92-3.92,3.92,3.92Zm-3-13.59h6.08l-3,3Zm-7.51,3-3-3h6.08Zm-10.55,0-3-3h6.08Zm-10.55,0-3-3h6.08ZM18.81,6.26,15.89,9.18V3.34Zm0,31.66-2.92,2.92V35Zm1.36,1.36,2.8,2.8h-5.6Zm10.55,0,2.8,2.8h-5.6Zm10.55,0,2.8,2.8h-5.6Zm10.55,0,2.8,2.8H49Zm1.36-1.36L56.12,35v5.85Zm0-31.66,2.92-2.92V9.18ZM56.12,49.1H15.89V43.94H56.12Zm14-7H58V1.86H70.15Z" fill="#fff"/></g></g></svg>