<svg id="Layer_1" data-name="Layer 1" xmlns="http://www.w3.org/2000/svg" width="36" height="29" viewBox="0 0 36 29"><title>special-icon-black</title><path d="M29,0H0V21.56H7V25H29V21.56h7V0ZM7,20.65H.93V.91H7Zm8.35-2.71L13.4,16l-.68-.67-2-1.92-.68-.67-2-1.92,2-1.92.68-.67,2-1.92.68-.67,2-1.92L16,3.07l2-1.92,2,1.92.68.67,2,1.92.68.67,2,1.92.68.67,2,1.92-2,1.92-.68.67-2,1.92L22.6,16l-2,1.92L20,18.6l-2,1.92L16,18.6ZM12,5.66l-2,1.92-2-1.92,2-1.92ZM10.77,3.07l2-1.92,2,1.92L12.72,5ZM7.94,12,9.4,13.43,7.94,14.86Zm0-5.18L9.4,8.25,7.94,9.68Zm2.14,7.28L12,16l-2,1.92L8.13,16Zm2.64,2.59,2,1.92-2,1.92-2-1.92Zm8.6-13.61,2-1.92,2,1.92L23.28,5Zm6.74,11.79L26.6,13.43,28.06,12Zm0-5.18L26.6,8.25l1.46-1.43Zm-4.78,7,2,1.92-2,1.92-2-1.92ZM24,16l2-1.92,2,1.92-2,1.92Zm2-8.43L24,5.66l2-1.92,2,1.92ZM24.39.91h3L25.91,2.4ZM20.64,2.4,19.12.91h3Zm-5.28,0L13.84.91h3Zm-5.28,0L8.56.91h3Zm-.68.67L7.94,4.51V1.64Zm0,15.53L7.94,20V17.17Zm.68.67,1.4,1.37H8.68Zm5.28,0,1.4,1.37H14Zm5.28,0L22,20.65h-2.8Zm5.28,0,1.4,1.37h-2.8Zm.68-.67,1.46-1.43V20Zm0-15.53,1.46-1.43V4.51Zm1.46,21H7.94V21.56H28.06Zm7-3.44H29V.91h6.08Z"/></svg>