<svg xmlns="http://www.w3.org/2000/svg" viewBox="0 0 380 370"><title>swift-infographic-black</title><g id="Layer_2" data-name="Layer 2"><g id="Layer_1-2" data-name="Layer 1"><path d="M289.09,58.47a4.84,4.84,0,0,1,4.93-5,4.38,4.38,0,0,1,3.55,1.73l-.7.45A3.53,3.53,0,0,0,294,54.18a4.29,4.29,0,0,0,0,8.57,3.53,3.53,0,0,0,2.85-1.42l.7.44A4.36,4.36,0,0,1,294,63.51,4.84,4.84,0,0,1,289.09,58.47Z" fill="#272423"/><path d="M303.71,63.33V62.5a3.07,3.07,0,0,1-2.39,1,2.36,2.36,0,0,1-2.46-2.35,2.33,2.33,0,0,1,2.46-2.34,3,3,0,0,1,2.39,1V58.39a1.68,1.68,0,0,0-1.9-1.62,2.74,2.74,0,0,0-2.2,1l-.42-.53a3.42,3.42,0,0,1,2.71-1.18c1.43,0,2.57.69,2.57,2.27v5Zm0-1.39V60.4a2.64,2.64,0,0,0-2.13-1,1.76,1.76,0,1,0,0,3.49A2.63,2.63,0,0,0,303.71,61.95Z" fill="#272423"/><path d="M306.84,63.33V56.27h.76v1.21A3,3,0,0,1,310,56.13V57a1.59,1.59,0,0,0-.38,0,2.69,2.69,0,0,0-2,1.26v5.15Z" fill="#272423"/><path d="M316.66,63.33V62.21a3,3,0,0,1-2.45,1.3c-1.87,0-3.15-1.43-3.15-3.7s1.28-3.71,3.15-3.71a3,3,0,0,1,2.45,1.32V53.58h.77v9.75Zm0-1.77V58.07a2.82,2.82,0,0,0-2.32-1.29c-1.56,0-2.47,1.32-2.47,3s.91,3,2.47,3A2.83,2.83,0,0,0,316.66,61.56Z" fill="#272423"/><path d="M323.24,58.47a4.84,4.84,0,0,1,4.93-5,4.38,4.38,0,0,1,3.55,1.73l-.7.45a3.53,3.53,0,0,0-2.85-1.42,4.29,4.29,0,0,0,0,8.57A3.53,3.53,0,0,0,331,61.33l.7.44a4.36,4.36,0,0,1-3.55,1.74A4.84,4.84,0,0,1,323.24,58.47Z" fill="#272423"/><path d="M337.86,63.33V62.5a3.07,3.07,0,0,1-2.39,1A2.36,2.36,0,0,1,333,61.16a2.33,2.33,0,0,1,2.46-2.34,3,3,0,0,1,2.39,1V58.39a1.68,1.68,0,0,0-1.9-1.62,2.74,2.74,0,0,0-2.2,1l-.42-.53a3.42,3.42,0,0,1,2.71-1.18c1.43,0,2.57.69,2.57,2.27v5Zm0-1.39V60.4a2.64,2.64,0,0,0-2.13-1,1.76,1.76,0,1,0,0,3.49A2.63,2.63,0,0,0,337.86,61.95Z" fill="#272423"/><path d="M341.74,62.19V66H341V56.27h.76v1.11a3,3,0,0,1,2.45-1.29c1.88,0,3.15,1.43,3.15,3.7s-1.27,3.71-3.15,3.71A3,3,0,0,1,341.74,62.19Zm4.79-2.4c0-1.71-.89-3-2.47-3A2.85,2.85,0,0,0,341.74,58v3.49a2.87,2.87,0,0,0,2.32,1.29C345.64,62.82,346.53,61.51,346.53,59.8Z" fill="#272423"/><path d="M353.74,63.33V62.5a3.07,3.07,0,0,1-2.39,1,2.36,2.36,0,0,1-2.47-2.35,2.33,2.33,0,0,1,2.47-2.34,3,3,0,0,1,2.39,1V58.39a1.68,1.68,0,0,0-1.9-1.62,2.74,2.74,0,0,0-2.2,1l-.42-.53a3.42,3.42,0,0,1,2.71-1.18c1.43,0,2.57.69,2.57,2.27v5Zm0-1.39V60.4a2.65,2.65,0,0,0-2.13-1,1.76,1.76,0,1,0,0,3.49A2.63,2.63,0,0,0,353.74,61.95Z" fill="#272423"/><path d="M356.45,59.8a3.45,3.45,0,0,1,3.43-3.7,2.91,2.91,0,0,1,2.5,1.2l-.53.47a2.23,2.23,0,0,0-1.93-1,3,3,0,0,0,0,6,2.24,2.24,0,0,0,1.93-1l.53.47a2.88,2.88,0,0,1-2.5,1.21A3.46,3.46,0,0,1,356.45,59.8Z" fill="#272423"/><path d="M363.86,54.58a.58.58,0,0,1,.58-.57.57.57,0,0,1,.58.57.59.59,0,0,1-.58.58A.6.6,0,0,1,363.86,54.58Zm.21,8.76V56.27h.76v7.06Z" fill="#272423"/><path d="M367.34,62v-5h-1.17v-.67h1.17V54.34h.77v1.93h1.43v.67h-1.43v4.91c0,.57.23,1,.73,1a1.11,1.11,0,0,0,.79-.34l.29.58a1.58,1.58,0,0,1-1.2.44C367.79,63.51,367.34,62.94,367.34,62Z" fill="#272423"/><path d="M370.87,65.4a1.75,1.75,0,0,0,.61.12c.47,0,.79-.19,1.07-.86l.56-1.26-3-7.12H371l2.57,6.17,2.54-6.17h.86l-3.65,8.61a1.87,1.87,0,0,1-1.81,1.32,2.93,2.93,0,0,1-.74-.1Z" fill="#272423"/><path d="M265.63,56.55,264.23,58l-.76-.79,2.32-2.38h1.14v8.66h-1.3Z" fill="#272423"/><path d="M272.13,54.72c2.4,0,3.38,2.33,3.38,4.47s-1,4.48-3.38,4.48-3.38-2.34-3.38-4.48S269.73,54.72,272.13,54.72Zm0,1.16c-1.53,0-2.06,1.62-2.06,3.31s.53,3.33,2.06,3.33,2.06-1.64,2.06-3.33S273.66,55.87,272.13,55.87Z" fill="#272423"/><path d="M269.49,70.81a11.62,11.62,0,1,1,11.6-11.62A11.62,11.62,0,0,1,269.49,70.81Zm0-22.26a10.64,10.64,0,1,0,10.62,10.64A10.65,10.65,0,0,0,269.49,48.55Z" fill="#272423"/><path d="M287.82,23.29a4.84,4.84,0,0,1,4.93-5A4.38,4.38,0,0,1,296.3,20l-.7.45A3.54,3.54,0,0,0,292.76,19a4,4,0,0,0-4.06,4.28,4.05,4.05,0,0,0,4.06,4.28,3.54,3.54,0,0,0,2.85-1.42l.7.44a4.36,4.36,0,0,1-3.55,1.74A4.84,4.84,0,0,1,287.82,23.29Z" fill="#272423"/><path d="M297.56,24.62a3.41,3.41,0,1,1,6.78,0,3.41,3.41,0,1,1-6.78,0Zm6,0a2.61,2.61,0,1,0-5.15,0c0,1.58.93,3,2.57,3S303.52,26.2,303.52,24.62Z" fill="#272423"/><path d="M314.69,28.16V23.22c0-1-.42-1.61-1.42-1.61a2.61,2.61,0,0,0-2,1.2v5.35h-.77V23.22c0-1-.41-1.61-1.41-1.61a2.7,2.7,0,0,0-2,1.21v5.34h-.76V21.1h.76v1.07a3.1,3.1,0,0,1,2.28-1.24,1.77,1.77,0,0,1,1.85,1.33,2.93,2.93,0,0,1,2.33-1.33c1.3,0,1.93.73,1.93,2.15v5.09Z" fill="#272423"/><path d="M318.57,27v3.83h-.76V21.1h.76v1.11A3,3,0,0,1,321,20.93c1.88,0,3.15,1.43,3.15,3.7s-1.27,3.71-3.15,3.71A3,3,0,0,1,318.57,27Zm4.79-2.4c0-1.71-.89-3-2.47-3a2.84,2.84,0,0,0-2.32,1.26v3.49a2.87,2.87,0,0,0,2.32,1.29C322.47,27.65,323.36,26.33,323.36,24.62Z" fill="#272423"/><path d="M330.57,28.16v-.83a3.07,3.07,0,0,1-2.39,1A2.36,2.36,0,0,1,325.71,26a2.33,2.33,0,0,1,2.46-2.34,3,3,0,0,1,2.39,1V23.22a1.68,1.68,0,0,0-1.9-1.62,2.74,2.74,0,0,0-2.2,1l-.42-.53a3.42,3.42,0,0,1,2.71-1.18c1.43,0,2.57.69,2.57,2.27v5Zm0-1.39V25.22a2.64,2.64,0,0,0-2.13-1,1.76,1.76,0,1,0,0,3.49A2.63,2.63,0,0,0,330.57,26.77Z" fill="#272423"/><path d="M333.69,28.16V21.1h.76v1.21A3,3,0,0,1,336.83,21v.83a1.59,1.59,0,0,0-.38,0,2.68,2.68,0,0,0-2,1.26v5.15Z" fill="#272423"/><path d="M338.46,26.8v-5h-1.17V21.1h1.17V19.17h.77V21.1h1.43v.67h-1.43v4.91c0,.57.23,1,.73,1a1.1,1.1,0,0,0,.79-.34l.29.58a1.58,1.58,0,0,1-1.2.44C338.91,28.34,338.46,27.77,338.46,26.8Z" fill="#272423"/><path d="M350.72,28.16V23.22c0-1-.42-1.61-1.42-1.61a2.61,2.61,0,0,0-2,1.2v5.35h-.77V23.22c0-1-.41-1.61-1.41-1.61a2.7,2.7,0,0,0-2,1.21v5.34h-.76V21.1h.76v1.07a3.1,3.1,0,0,1,2.28-1.24,1.78,1.78,0,0,1,1.85,1.33,2.92,2.92,0,0,1,2.33-1.33c1.3,0,1.93.73,1.93,2.15v5.09Z" fill="#272423"/><path d="M353.43,24.62a3.51,3.51,0,0,1,3.4-3.7c2.14,0,3.33,1.71,3.33,3.74v.2h-5.9A2.75,2.75,0,0,0,357,27.68a3.1,3.1,0,0,0,2.3-1l.39.5A3.63,3.63,0,0,1,357,28.34,3.48,3.48,0,0,1,353.43,24.62Zm3.39-3a2.66,2.66,0,0,0-2.55,2.69h5.12A2.59,2.59,0,0,0,356.82,21.58Z" fill="#272423"/><path d="M366.87,28.16V23.38c0-1.36-.69-1.77-1.71-1.77a3,3,0,0,0-2.29,1.21v5.34h-.76V21.1h.76v1.07a3.57,3.57,0,0,1,2.54-1.24c1.43,0,2.22.7,2.22,2.29v4.94Z" fill="#272423"/><path d="M370.14,26.8v-5H369V21.1h1.17V19.17h.77V21.1h1.43v.67h-1.43v4.91c0,.57.23,1,.73,1a1.1,1.1,0,0,0,.79-.34l.29.58a1.58,1.58,0,0,1-1.2.44C370.59,28.34,370.14,27.77,370.14,26.8Z" fill="#272423"/><path d="M373.39,27.23l.45-.57a2.93,2.93,0,0,0,2.28,1c1.18,0,1.88-.61,1.88-1.43s-1-1.14-2-1.4c-1.18-.29-2.48-.6-2.48-2,0-1.08.92-2,2.51-2a3.24,3.24,0,0,1,2.52,1l-.42.54a2.56,2.56,0,0,0-2.1-.94c-1.09,0-1.77.56-1.77,1.29s.9,1,1.88,1.26c1.21.31,2.57.64,2.57,2.15,0,1.14-.88,2.08-2.64,2.08A3.41,3.41,0,0,1,373.39,27.23Z" fill="#272423"/><path d="M266.66,26.24a3.15,3.15,0,0,0,2.41,1.1c1.19,0,1.91-.57,1.91-1.48s-.78-1.36-2-1.36c-.35,0-.8,0-.93,0V23.33c.14,0,.6,0,.93,0,1.05,0,1.91-.39,1.91-1.29S270,20.7,269,20.7a3,3,0,0,0-2.26,1l-.69-.8a3.89,3.89,0,0,1,3.06-1.35c1.76,0,3,.87,3,2.33a2.12,2.12,0,0,1-1.88,2,2.19,2.19,0,0,1,2,2.12c0,1.45-1.21,2.51-3.16,2.51a3.83,3.83,0,0,1-3.18-1.42Z" fill="#272423"/><path d="M269.26,35.64A11.62,11.62,0,1,1,280.86,24,11.62,11.62,0,0,1,269.26,35.64Zm0-22.26A10.64,10.64,0,1,0,279.89,24,10.65,10.65,0,0,0,269.26,13.38Z" fill="#272423"/><path d="M283.21,242.16l-1.34,2,2.22-2.19Z" fill="#272423"/><path d="M52.19,345.8a3.29,3.29,0,0,0,2.44-.88l.33-.24-.19,1.87.63.06.24-2.32a1.85,1.85,0,0,1,.93-.15c1,.1,1.79.91,2.25,2.38l.75-.26a4.28,4.28,0,0,1-.42-1.83,2.54,2.54,0,0,1,.46-1.22,2.72,2.72,0,0,0,.52-1.38,2.76,2.76,0,0,0-.5-2l-.74.33a2.07,2.07,0,0,1,.46,1.56,2.34,2.34,0,0,1-.42,1,2.77,2.77,0,0,0-.47,1.19,2.56,2.56,0,0,0,.05.82,2.51,2.51,0,0,0-2-1.43,2.2,2.2,0,0,0-.81.07l.19-1.88-.63-.06-.23,2.26a4.5,4.5,0,0,0-.55.37,3,3,0,0,1-2.21.79,2.19,2.19,0,0,1-1.89-2.6,2.3,2.3,0,0,1,1.51-1.93l-.36-.73a3.1,3.1,0,0,0-1.9,2.65A3.07,3.07,0,0,0,52.19,345.8Z" fill="#272423"/><path d="M71.18,314.29a2.22,2.22,0,0,1,.29,1.72,2.52,2.52,0,0,1-.59,1.06,3,3,0,0,0-.66,1.21,2.74,2.74,0,0,0-.05.88,2.7,2.7,0,0,0-1.91-1.78,2.36,2.36,0,0,0-.87,0l.45-2-.66-.15-.54,2.38a4.83,4.83,0,0,0-.63.32,3.28,3.28,0,0,1-2.46.55,2.36,2.36,0,0,1-1.68-3,2.47,2.47,0,0,1,1.86-1.86l-.29-.83a3.33,3.33,0,0,0-2.37,2.57,3.3,3.3,0,0,0,2.24,4.09A3.54,3.54,0,0,0,66,318.8l.38-.21-.45,2,.66.15.56-2.44a2,2,0,0,1,1,0c1,.23,1.79,1.21,2.08,2.83l.83-.17a4.61,4.61,0,0,1-.21-2,2.73,2.73,0,0,1,.65-1.24,2.92,2.92,0,0,0,.73-1.41A3,3,0,0,0,72,314Z" fill="#272423"/><polygon points="73.28 301.72 72.64 301.58 71.71 305.66 69.85 305.23 70.78 301.15 70.12 301 69.29 304.64 64.8 299.69 64.55 300.77 68.9 305.5 62.94 307.86 62.69 308.95 68.89 306.44 68.06 310.06 68.72 310.21 69.64 306.15 71.5 306.57 70.58 310.63 71.22 310.78 72.14 306.72 74.13 307.17 74.33 306.26 72.35 305.8 73.28 301.72" fill="#272423"/><path d="M75,290.46c-2-.46-3,1.07-3.82,2.61l-3.95-.9A3.63,3.63,0,0,1,69.07,290l-.52-.75A4.46,4.46,0,0,0,66.4,292L65,291.65l-.16.72,1.43.33c-.33,1.81.42,3.48,2.05,3.85,1.86.42,2.73-1.08,3.53-2.57l4.42,1A4.39,4.39,0,0,1,74,297.6l.54.74a4.91,4.91,0,0,0,2.47-3.16l1.38.32.16-.72-1.4-.32C77.63,291.91,76.27,290.75,75,290.46Zm-6.56,5.13a2.17,2.17,0,0,1-1.4-2.71l3.77.86C70.19,294.9,69.56,295.85,68.44,295.59Zm7.93-1.34-4.2-1c.65-1.18,1.37-2.17,2.68-1.87C75.68,291.61,76.66,292.38,76.37,294.26Z" fill="#272423"/><path d="M141.61,278.56l9,.19a52.72,52.72,0,0,1-.2,5.33L72,265.28l-.78-.19a1.31,1.31,0,0,0-1,.19c-1,.55-3.48,2.94-6.18,13.28-1.46,5-2.9,11-4.21,17l-5.36-.64-.74-.09a1.22,1.22,0,0,0-.93.29c-.83.61-2.9,3.09-4.29,12.94-2.7,16.15-4.16,42-4.17,42.27v.25L47,351a12,12,0,0,0-.11,3.53l.06.16,2.31.36,122.36,15h.09l.26-.15,0-.08a15.37,15.37,0,0,0,1.07-4.17c.12-.74.24-1.51.43-2.38s.56-3.21,1-6.43L187.8,360l.09,0,.3-.13.05-.08a16.53,16.53,0,0,0,1.66-4.32c.22-.77.44-1.57.75-2.48,1.63-4.8,13.66-52.44,13.79-52.92l.07-.28-4-1.15a6.59,6.59,0,0,0-.23-2.47l-.08-.18-37.59-9a45.09,45.09,0,0,0,.2-8l4.28.09-12.7-12.83ZM44.86,350.07c.16-2.74,1.6-26.69,4.15-42,1.11-7.88,2.83-11.67,4.07-12.58a.74.74,0,0,1,.52-.18l6.05.73c-2.2,10-4,19.72-4.85,24.33l-2.07-.21A3.38,3.38,0,0,1,54.18,318l-.57-.63a4.15,4.15,0,0,0-1.67,2.77L50.57,320l-.07.69,1.36.14c-.1,1.71.78,3.16,2.33,3.32a2.08,2.08,0,0,0,1.4-.32l1.55.41a12.82,12.82,0,0,0-.55,3.75l0,.07-.2,0L56,331.48l-4.71-4.07-.11,1,4.55,3.87-5.24,2.86-.11,1,5.44-3-.35,3.44.63.06.4-3.86,1.76.18-.4,3.86.61.06.4-3.86,1.88.19.09-.87L59,332.2l.34-3.31,108.91,26.37c-.63,4.14-1.14,7.52-1.43,9.47L51.52,351.06h0l-3.9-.58h0Zm9.82-29c-.23,1.29-.36,2-.37,2.09v0h-.07a2,2,0,0,1-1.6-2.34Zm4.06,7.65-.35,3.41L56.63,332l.38-3.71Zm-9.4,25.71-1.95-.3a14.3,14.3,0,0,1,.18-3.11l3.51.52v0L167,365.32l.27,0,0-.27c.39-2.6.89-5.95,1.46-9.69l1.74.42a54.12,54.12,0,0,0-.42,9.06v.2a9.56,9.56,0,0,0,.95,4.29ZM173,363.1c-.19.89-.31,1.66-.44,2.41a16.12,16.12,0,0,1-.9,3.69c-.69-.94-.83-2.49-1-4.16v-.2a53.26,53.26,0,0,1,.41-8.89l2.92.71C173.52,359.88,173.15,362.23,173,363.1Zm27.51-63.83,3.31.95c-1,4-12.15,48-13.7,52.59-.31.93-.54,1.73-.76,2.52a17.38,17.38,0,0,1-1.42,3.83c-.62-1.09-.58-2.76-.5-4.56v-.21c.32-7.42,5.14-23.36,9.3-36.41A100.14,100.14,0,0,0,200.48,299.27Zm-.57-.4c-.23,4.71-2.21,14-3.76,18.92-4.17,13.09-9,29.08-9.32,36.57v.21a10.31,10.31,0,0,0,.48,4.69l-128.11-31-2-.57a15.36,15.36,0,0,1,.57-3.29l3.67,1v0l122.09,29.07.28.07.08-.28c4-14.65,14-51.46,16.06-57.06A11.58,11.58,0,0,1,199.91,298.86ZM157,298.47c1.88-2,4.56-4.27,5.53-10.86l37,8.87c-2,4.67-13.61,47.63-16.23,57.32L62,324.9h0l-4.11-1.1h0l-2.9-.78c.51-2.9,5-28.3,9.62-44.28,2.72-10.42,5.2-12.52,5.9-12.92a.79.79,0,0,1,.58-.13l79.3,19c-.79,7.09-3.25,8.12-5.61,10.22l-1,.7,12.92,3.26S156.8,298.7,157,298.47Z" fill="#272423"/><path d="M124,127l.37.28.77-1Z" fill="#272423"/><path d="M37.74,232.17A14.9,14.9,0,1,0,52.6,247.09,14.89,14.89,0,0,0,37.74,232.17Zm0,22.65a7.57,7.57,0,0,1-6-2.44l1.69-2.12A6,6,0,0,0,37.61,252c1.84,0,2.86-.8,2.87-2s-.93-1.8-3-1.8c-.64,0-1.66,0-1.89,0v-2.82c.27,0,1.3,0,1.89,0,1.68,0,2.8-.54,2.8-1.68S39,242,37.41,242a5.48,5.48,0,0,0-3.86,1.59l-1.59-2a7.46,7.46,0,0,1,5.8-2.41c3.55,0,5.73,1.6,5.73,4.13a3.72,3.72,0,0,1-3.32,3.46,3.81,3.81,0,0,1,3.54,3.65C43.7,253,41.36,254.83,37.72,254.82Z" fill="#272423"/><polygon points="342.27 268.58 342.27 268.59 342.28 268.6 342.27 268.58" fill="#272423"/><path d="M350.85,347.69c-28-17.75-34.27-32.42-34.36-32.62-.65-1-1.12-1.87-1.57-2.72-1.56-2.9-2.9-5.41-10.62-11.45a43.57,43.57,0,0,0-19.32-11c-2.57-.86-11.59-4.27-15.63-6.17a75.12,75.12,0,0,1-11.68-6.8l-5.8-3.85-3-2c-.6-.47-1.38-1-2.29-1.66a73.28,73.28,0,0,1-6.25-4.81c1.37.82,3.88,2.3,4.77,2.76l.49.25c2.67,1.39,4.28,2.15,5,2.15a.68.68,0,0,0,.28-.05c.82-.38,6.57-11.87,7.88-16.64.5-1.81.31-2.37.13-2.64-.49-.71-5.05-2.71-5.57-2.93-1.22-.53-4.85-1.72-5-1.78a10.11,10.11,0,0,0-11.37,5.53,10,10,0,0,0,.23,10c-.21-.28-.43-.55-.62-.83-1.75-2.64-2.39-5.21-1.9-7.63.72-3.54,3.64-5.91,5.32-7,4-2.63,10.58-1.82,10.65-1.81,4.26.45,23.72,6.11,23.89,6.16,5.6,2,9.85,4,13.26,5.62l2.5,1.16a149.21,149.21,0,0,0,19.53,9.38c4.12,1.45,28.9,4.38,32.6,2.63h0l-.14-.29h0l-.15-.3c-2.23,1.08-13.51.21-22.2-.91l.58-1.4c3.43-8.21,7-16.71,10.92-22.21a34.69,34.69,0,0,1,7.49-8l-.38-.56a34.55,34.55,0,0,0-7.66,8.12c-4,5.53-7.5,14-10.93,22.19-7.41-2.6-11-6.84-12.55-11a3.67,3.67,0,0,0-.16-.57l0,0a20.09,20.09,0,0,1-.2-11.58c.64-.58,5-5,4.6-16.6l-.67,0c.42,11.28-3.89,15.62-4.38,16.08-1,.29-2,.51-3,.7v.69c.87-.17,1.76-.36,2.69-.61a21.5,21.5,0,0,0,.45,11.51l-.06,0s1.32,3.42-2.63,8.84a132.5,132.5,0,0,1-13.41-6.81l-2.52-1.17c-2.79-1.3-6.14-2.87-10.33-4.51.86-1.57,2.73-4.39,4.06-6.35h0l.13-.13,1.34-2,.88-.23L285,241c-.8.18-4.37,1-4.95,1.6l-7.49,6.24c-4-1.14-12.57-3.56-18-4.82l1.85-1.82a1,1,0,0,0,0-1.37L255,239.33l.81-.8c.4-.39.24-1.15-.36-1.76l-3.81-3.89.43-.42c2.46-2.83,12.82-11.32,16.58-14.37l-.47-.48c-3.81,3.09-14.09,11.51-16.59,14.39l-.41.4-12-12.28,16.58-16.26v-.95L176,281.11a4.21,4.21,0,0,1-3,1.21h0a4.2,4.2,0,0,1-3-1.28l-16.45-16.61-.48.47,1.34,1.36,12.7,12.83,2.4,2.42A4.87,4.87,0,0,0,173,283H173a4.86,4.86,0,0,0,3.43-1.4L212,246.68l16.29,16.68a2.29,2.29,0,0,0,.55.41l-.23.75a11.35,11.35,0,0,0-.09,4.5,9.48,9.48,0,0,0,2.23,4.65c1.83,1.88,3.83,2.06,6.26,2.09h.14a17.84,17.84,0,0,0,8.45-2.42,21.06,21.06,0,0,0,2.68-1.9l.15.11,3,2,5.79,3.85c1,.69,2,1.33,2.88,1.92-.35,1-1.53,4.48-1.48,6.37.05,2.05,1.26,6.27,2.95,10.28,0,.06,3.43,6.24,7,11.32.3.87,3.71,10.84,6.14,13.73a1.51,1.51,0,0,0,1.69.46,9.67,9.67,0,0,0,7.68.48c3-1.22,5.33-4.21,6.86-8.9a6.38,6.38,0,0,0,1.56,1.3c1.07.6,13.55,5.6,19.5,6.84,2.68,1.09,6.87,2.66,8.81,2.66a1.94,1.94,0,0,0,.64-.09c4.94,6,13.76,14.78,28.93,24.4.09.08,9.71,8.1,29.22,11.47l.11-.66-.21,0C360.41,355.65,351,347.8,350.85,347.69Zm-43.33-91.47c1.87,3.84,5.46,7.58,12.19,10l-.46,1.11a65.25,65.25,0,0,1-9.2-1.66s-2.23-.86-5.41-2.26A13.55,13.55,0,0,0,307.52,256.22Zm-27-13.11a6.3,6.3,0,0,1,1.67-.66c-1.17,1.71-4,5.86-5.1,7.9-.77-.3-1.55-.59-2.38-.89l-1.36-.39Zm-43,8.39a9.28,9.28,0,0,1,10.58-5.19s3.76,1.24,4.95,1.75a30.7,30.7,0,0,1,5.28,2.7c1,1.5-6.38,17-7.74,18.28h0c-.67,0-3.57-1.51-4.68-2.09l-.49-.26c-1.2-.62-5.61-3.26-5.61-3.26S234,258.49,237.54,251.5ZM236,260.77c.08.12.17.23.25.34l-2.54,2.49a.29.29,0,0,1-.21.08.37.37,0,0,1-.21-.09L228,258.24a.3.3,0,0,1,0-.42l6.21-6.09a8.77,8.77,0,0,0-.26.91C233.46,255.24,234.13,258,236,260.77Zm20-19.46a.3.3,0,0,1,0,.42l-2.16,2.12c-1.32-.29-2.43-.51-3.13-.58a21.92,21.92,0,0,0-8.56.72l8.2-8a.29.29,0,0,1,.21-.09h0a.29.29,0,0,1,.21.09ZM228.8,262.89l-16.29-16.68,26.12-25.63L255,237.23c.38.39.43.76.38.81l-.82.8-3.28-3.36a1,1,0,0,0-.68-.29h0a1,1,0,0,0-.68.28l-9.4,9.22a9.45,9.45,0,0,0-.87.5,14.06,14.06,0,0,0-4.71,5l-7.31,7.17a1,1,0,0,0,0,1.38l3.26,3.33-1.29,1.26A1.2,1.2,0,0,1,228.8,262.89Zm16.47,9.88a17.36,17.36,0,0,1-8.09,2.32h-.13c-2.34,0-4.13-.19-5.78-1.89a9,9,0,0,1-2.06-4.33,11,11,0,0,1,.09-4.18l.22-.72h0a.75.75,0,0,0,.54-.21l1.24-1.22,1.48,1.52a1,1,0,0,0,.68.29h0a1,1,0,0,0,.68-.28l2.48-2.43c2.49,3.23,6.51,6.1,9.54,8.24l1.58,1.14A23,23,0,0,1,245.27,272.78Zm29.28,46.78c-2.35-3.83-5.25-12.37-5.28-12.47l0-.07h0c-.35-.57-1.25-2.36-.71-3.1.33-.45,1.23-.52,2.69-.17,0,0,2,.11,6,5.82,0,0,.73,1.19-.33,3.49l-.11.25A24,24,0,0,0,274.55,319.55Zm16-7.2c-1.45,4.81-3.69,7.86-6.64,9a9.14,9.14,0,0,1-7.24-.51l-.13-.08-.14.05c-.7.24-1-.08-1.06-.17-.71-1,1-4.83,2.08-7.1l.11-.25c1.23-2.68.33-4.09.28-4.15-4.07-5.68-6.15-6.09-6.56-6.12-1.7-.41-2.76-.26-3.28.45a1.84,1.84,0,0,0-.27,1.25c-3-4.48-5.46-9-5.47-9-1.64-3.91-2.83-8-2.88-10a23,23,0,0,1,1.39-6,69.77,69.77,0,0,0,8.31,4.55c4.16,1.95,12.86,5.23,15.58,6.16.46.8,3.52,6.17,5.28,9.62S290.61,312,290.56,312.35Zm2.35,1.49a6,6,0,0,1-1.67-1.51c.16-1.15,1.12-9-.72-12.56-1.52-3-4-7.39-5-9.07a43.73,43.73,0,0,1,18.3,10.71c7.64,6,9,8.43,10.47,11.27l.18.32a7.81,7.81,0,0,0-2.93-.12,4.53,4.53,0,0,0-2.82,2.17,3.74,3.74,0,0,0-.49,2.87,4.42,4.42,0,0,0,1.69,2.13A150.3,150.3,0,0,1,292.91,313.84Zm19.42,6.81h0s-2.92-1.19-3.42-2.91a3.13,3.13,0,0,1,.43-2.34,3.86,3.86,0,0,1,2.41-1.86,7.71,7.71,0,0,1,3.18.23c.29.52.6,1.05,1,1.62a38.43,38.43,0,0,0,5.18,7.89C320.07,323.44,316,322.12,312.33,320.65Z" fill="#272423"/><path d="M278,262.69c-2.16,2.44-6.23,11.32-6.4,11.7l.61.28c0-.09,4.2-9.17,6.29-11.53Z" fill="#272423"/><path d="M283.91,265.86c.41,1.54-.65,10.79-3.23,14.57a3.08,3.08,0,0,1-2,1.55l.07.67a3.69,3.69,0,0,0,2.52-1.83c2.73-4,3.77-13.48,3.33-15.12Z" fill="#272423"/><path d="M278.3,269.29c-.54.91-3.66,10.08-3.79,10.47l.63.22c.9-2.64,3.32-9.64,3.73-10.34Z" fill="#272423"/><path d="M317.39,214.34c10.23.4,31.53.73,31.7.73,6.34.89,7.45,2,11.15,5.61l1.13,1.11a94.26,94.26,0,0,1,8.36,9.38c1.19,1.84,6,8.56,9.73,13.74l.54-.39c-4-5.59-8.61-12-9.73-13.74a94.51,94.51,0,0,0-8.44-9.48l-1.13-1.11c-3.71-3.65-5-4.87-11.56-5.8-.21,0-21.5-.33-31.71-.73-1.24-.08-27-1.73-36.79-1.72l.67.68C291.66,212.7,317.09,214.32,317.39,214.34Z" fill="#272423"/><path d="M274.43,233.1c.13.32,3.13,7.76,4.86,10.09l.54-.4c-1.68-2.26-4.75-9.86-4.78-9.94Z" fill="#272423"/><path d="M274.47,178.56a4.25,4.25,0,0,1-.06,6l-11.52,11.3h1l11-10.82a4.93,4.93,0,0,0,.07-7l-16.45-16.62-.48.47Z" fill="#272423"/><polygon points="255.76 195.8 255.7 202.91 255.7 203.85 255.59 217.65 262 211.32 268.17 217.6 268.64 218.08 288.15 237.93 285.02 241.01 284.09 241.93 281.88 244.12 281.74 244.25 281.79 244.25 303.54 244.42 303.55 243.32 303.56 242.63 303.71 222.58 297.3 228.9 281.3 212.62 280.64 211.94 271.15 202.29 277.56 195.97 263.84 195.87 262.89 195.86 255.76 195.8" fill="#272423"/><path d="M173.95,244.41,258,161.94l.48-.47h0a3,3,0,0,0,0-4.23l-58.4-59.76a3,3,0,0,0-4.22,0l-52.44,51.45V132.06l-6.78,6.81c-2.58-3.57-7.08-7.56-11.85-11.21l1.78-2.32,44.57-28.48a4.62,4.62,0,0,0,2.05-3.21,5.69,5.69,0,0,0-.85-4L169,84.27l10.25-8a4.63,4.63,0,0,0,1.73-3.39A5.68,5.68,0,0,0,179.72,69l-4.92-6.3,2-2.55a4.63,4.63,0,0,0,.84-3.72,5.68,5.68,0,0,0-2.15-3.45l-20.75-16L127.59,2.21A5.16,5.16,0,0,0,120.42,1L114.3,5.75l-5.87-4.53a5.16,5.16,0,0,0-7.26.56L73.59,37.67,17.22,81.87,4.08,90.26A4.62,4.62,0,0,0,2,93.47a5.7,5.7,0,0,0,.85,4l45.48,71.45A5.65,5.65,0,0,0,52,171.45a4.58,4.58,0,0,0,3.4-.6l14.16-9A4.41,4.41,0,0,0,71,161L72.39,160l.38-.24,12.91,10a5.65,5.65,0,0,0,4.27,1.16,4.58,4.58,0,0,0,3-1.72L117.64,137c4.69,3.75,8.74,7.57,10.4,10.53l-6.35,6.38h16.67l-47.88,47a3,3,0,0,0,0,4.23l58.4,59.76a3,3,0,0,0,4.22,0h0l.48-.47Zm1.14-191A5.09,5.09,0,0,1,177,56.5a4,4,0,0,1-.73,3.24l-1.86,2.43L156.19,38.83ZM101.66,2.15a4,4,0,0,1,2.6-1.5,5.06,5.06,0,0,1,3.81,1l5.75,4.43-38.32,30Zm19.13-.72a4,4,0,0,1,2.89-.8,5.07,5.07,0,0,1,3.44,2l52.13,66.74a5.1,5.1,0,0,1,1.1,3.47,4,4,0,0,1-1.51,3l-10.2,8L126.91,18.2a5.16,5.16,0,0,0-7-1.94L22.48,78.5ZM92.46,168.77a4.57,4.57,0,0,1-6.42.45L73.31,159.4l40.11-25.63c1.27.94,2.53,1.89,3.76,2.86Zm31-42.15c-7.41-5.52-15.1-10.07-17-10.79a.85.85,0,0,0-.53,0l-10.37,7.07.52.13c1.92.49,9.46,5,16.82,10.39l-57.84,37a4.57,4.57,0,0,1-6.19-1.76L3.39,97.13a5.1,5.1,0,0,1-.76-3.56,4,4,0,0,1,1.78-2.8l115.81-74a4,4,0,0,1,3-.52,5.07,5.07,0,0,1,3.23,2.28L171.89,90a5.1,5.1,0,0,1,.76,3.56,4,4,0,0,1-1.78,2.8Zm.51.39,1.14-.73-.77,1Zm73-28.44a1.4,1.4,0,0,1,2,0l58.4,59.76a1.41,1.41,0,0,1,0,2L236.73,180.6l-60.37-61.76Zm-21.26,20.85,60.37,61.76-63,61.76-60.36-61.77ZM151.94,263.77a1.4,1.4,0,0,1-2,0L91.56,204a1.41,1.41,0,0,1,0-2l20.66-20.27,60.36,61.77Z" fill="#272423"/><path d="M313.85,189.15A14.9,14.9,0,1,0,299,174.25,14.89,14.89,0,0,0,313.85,189.15Zm0-22.75c3.29,0,5.9,1.86,5.9,4.94,0,2.64-2.18,4.94-6.32,7.85h6.43v2.9H308.21v-2.6c6.32-4.65,8.17-6.25,8.18-8.15,0-1.34-1.22-2-2.52-2a5.5,5.5,0,0,0-4.12,1.78l-1.87-2.18A7.85,7.85,0,0,1,313.82,166.4Z" fill="#272423"/><path d="M101.93,33.52l-1.86,1.19,3,4.74,1.86-1.19a2.81,2.81,0,1,0-3-4.74Zm2.45,3.85-.86.55-1.88-3,.86-.55a1.63,1.63,0,0,1,2.42.54A1.68,1.68,0,0,1,104.37,37.37Z" fill="#272423"/><polygon points="109.32 34.23 108.62 33.13 110.91 31.67 110.37 30.8 108.08 32.26 107.42 31.23 109.76 29.74 109.21 28.87 105.87 31.01 108.87 35.74 112.22 33.61 111.66 32.74 109.32 34.23" fill="#272423"/><path d="M115.2,28.28a1.24,1.24,0,0,0,.13-1.6,1.45,1.45,0,0,0-2.13-.34l-2.49,1.59,3,4.74L116.28,31a1.48,1.48,0,0,0,.56-2.16A1.36,1.36,0,0,0,115.2,28.28Zm-2.94-.14,1.26-.81a.62.62,0,1,1,.66,1l-1.26.81Zm3.21,2.19-1.3.83L113.47,30l1.3-.83a.65.65,0,0,1,1,.17A.64.64,0,0,1,115.47,30.33Z" fill="#272423"/><polygon points="116.12 24.47 119.13 29.2 120.13 28.56 117.13 23.83 116.12 24.47" fill="#272423"/><polygon points="122.81 21.45 122.25 20.56 118.48 22.96 119.05 23.85 120.43 22.97 122.87 26.82 123.89 26.17 121.44 22.32 122.81 21.45" fill="#272423"/><polygon points="177.69 126.87 176.18 125.33 175.92 125.58 177.43 127.12 177.69 126.87" fill="#272423"/><polygon points="207.71 157.58 204.7 154.51 204.45 154.76 207.45 157.83 207.71 157.58" fill="#272423"/><polygon points="201.7 151.44 198.7 148.37 198.44 148.62 201.44 151.69 201.7 151.44" fill="#272423"/><polygon points="225.72 176 222.72 172.93 222.46 173.18 225.46 176.25 225.72 176" fill="#272423"/><polygon points="189.69 139.15 186.69 136.08 186.44 136.33 189.44 139.4 189.69 139.15" fill="#272423"/><polygon points="195.7 145.29 192.69 142.22 192.44 142.47 195.44 145.54 195.7 145.29" fill="#272423"/><polygon points="213.71 163.72 210.71 160.65 210.45 160.9 213.45 163.97 213.71 163.72" fill="#272423"/><polygon points="183.69 133.01 180.69 129.94 180.43 130.19 183.43 133.26 183.69 133.01" fill="#272423"/><polygon points="219.71 169.86 216.71 166.79 216.46 167.04 219.46 170.11 219.71 169.86" fill="#272423"/><polygon points="228.69 182.38 230.35 180.75 228.72 179.07 228.46 179.33 229.84 180.74 228.44 182.13 228.69 182.38" fill="#272423"/><polygon points="183.78 225.94 184.03 226.2 187.22 223.07 186.97 222.81 183.78 225.94" fill="#272423"/><polygon points="177.4 232.2 177.65 232.46 180.84 229.33 180.59 229.07 177.4 232.2" fill="#272423"/><polygon points="190.16 219.68 190.41 219.94 193.6 216.81 193.35 216.55 190.16 219.68" fill="#272423"/><polygon points="196.54 213.42 196.79 213.68 199.98 210.55 199.73 210.29 196.54 213.42" fill="#272423"/><polygon points="212.74 198.03 212.49 197.77 209.3 200.9 209.55 201.16 212.74 198.03" fill="#272423"/><polygon points="202.92 207.16 203.17 207.42 206.36 204.29 206.11 204.03 202.92 207.16" fill="#272423"/><polygon points="225.5 185.51 225.25 185.25 222.06 188.38 222.31 188.64 225.5 185.51" fill="#272423"/><rect x="215.16" y="193.03" width="4.47" height="0.36" transform="translate(-73.11 207.21) rotate(-44.39)" fill="#272423"/><polygon points="174.21 235.33 172.8 236.72 171.42 235.3 171.16 235.55 172.8 237.22 174.46 235.59 174.21 235.33" fill="#272423"/><polygon points="165.16 229.41 168.16 232.48 168.42 232.23 165.41 229.16 165.16 229.41" fill="#272423"/><polygon points="159.16 223.27 162.16 226.34 162.41 226.09 159.41 223.02 159.16 223.27" fill="#272423"/><polygon points="141.14 204.84 144.15 207.91 144.4 207.66 141.4 204.59 141.14 204.84" fill="#272423"/><polygon points="135.14 198.7 138.14 201.77 138.4 201.52 135.4 198.45 135.14 198.7" fill="#272423"/><polygon points="129.13 192.56 132.14 195.63 132.39 195.38 129.39 192.31 129.13 192.56" fill="#272423"/><polygon points="147.15 210.99 150.15 214.06 150.41 213.81 147.4 210.73 147.15 210.99" fill="#272423"/><polygon points="153.15 217.13 156.15 220.2 156.41 219.95 153.41 216.88 153.15 217.13" fill="#272423"/><polygon points="123.13 186.42 126.13 189.49 126.39 189.24 123.39 186.17 123.13 186.42" fill="#272423"/><polygon points="118.62 181.8 120.13 183.35 120.39 183.09 118.88 181.55 118.62 181.8" fill="#272423"/><polygon points="183.59 205.4 182.18 206.78 182.16 208.64 185.99 212.57 186.93 211.65 183.1 207.72 184.51 206.34 183.59 205.4" fill="#272423"/><polygon points="190.34 204.78 192.1 206.58 193.04 205.66 192.2 204.8 190.34 204.78" fill="#272423"/><polygon points="199.43 198.06 195.35 193.88 194.41 194.8 197.57 198.04 199.43 198.06 199.43 198.06 200.79 198.08 200.81 196.71 200.83 194.85 197.67 191.61 196.73 192.53 199.46 195.33 199.43 198.06" fill="#272423"/><path d="M190.69,208l-1.76-1.81,1.41-1.38,0-1.86-1.15-1.18-1.86,0-1.41,1.38,0,1.86,3.83,3.93ZM186.86,204l1.41-1.38,1.15,1.18L188,205.22Z" fill="#272423"/><path d="M195.4,203.36l1.41-1.38,0-1.86-2.91-3-1.86,0-1.41,1.38,0,1.86,2.91,3ZM193,198l2.91,3-1.41,1.38-2.91-3Z" fill="#272423"/><polygon points="182.16 208.64 181.24 207.7 179.83 209.08 180.75 210.03 182.16 208.64" fill="#272423"/><polygon points="200 191.17 202.91 194.16 204.77 194.18 206.66 192.34 205.74 191.39 203.85 193.24 202.86 192.21 203.56 191.52 203.59 189.66 201.94 191.27 200.94 190.25 202.82 188.41 201.91 187.47 200.02 189.31 200 191.17" fill="#272423"/><path d="M14.83,8.63A14.9,14.9,0,1,0,29.75,23.49,14.89,14.89,0,0,0,14.83,8.63ZM17.6,31.38H14.24V20l-2.59,2.66-1.9-2,4.94-5h2.91Z" fill="#272423"/></g></g></svg>