<svg xmlns="http://www.w3.org/2000/svg" width="109" height="24" viewBox="0 0 109 24"><title>trove-logo</title><g id="Layer_2" data-name="Layer 2"><g id="content"><polygon points="6.97 4.64 6.97 24 11.61 24 11.61 4.64 18.58 4.64 18.58 0 11.61 0 6.97 4.64" fill="#fff"/><polygon points="41.8 24 41.8 19.74 37.16 15.1 37.16 24 41.8 24" fill="#fff"/><polygon points="72 0 72 15.95 76.64 20.59 76.64 0 72 0" fill="#fff"/><polygon points="83.45 13.78 76.64 20.59 80.05 24 83.45 20.59 88.1 15.95 88.1 0 83.45 0 83.45 13.78" fill="#fff"/><path d="M30.19,0,25.55,4.65V24h4.64V15.1h7l4.65-4.65V4.65L37.16,0Zm7,10.45h-7V4.65h7Z" fill="#fff"/><path d="M53.42,0,48.77,4.65V19.35L53.42,24h7L65,19.35V4.65L60.39,0Zm7,19.35h-7V4.64h7Z" fill="#fff"/><rect width="6.97" height="4.65" fill="#fff"/><polygon points="109 4.64 109 0 99.71 0 95.07 4.64 95.07 19.36 99.71 24 109 24 109 19.36 99.71 19.36 99.71 14.32 103.2 14.32 107.84 9.68 99.71 9.68 99.71 4.64 109 4.64" fill="#fff"/></g></g></svg>