<svg xmlns="http://www.w3.org/2000/svg" width="109" height="52.33" viewBox="0 0 109 52.33"><title>trove-custom-logo</title><g id="Layer_2" data-name="Layer 2"><g id="content"><rect y="31.58" width="109" height="20.74" fill="#fff"/><polygon points="6.97 4.64 6.97 24 11.61 24 11.61 4.64 18.58 4.64 18.58 0 11.61 0 6.97 4.64" fill="#fff"/><polygon points="41.8 24 41.8 19.74 37.16 15.1 37.16 24 41.8 24" fill="#fff"/><polygon points="72 0 72 15.95 76.64 20.59 76.64 0 72 0" fill="#fff"/><polygon points="83.45 13.78 76.64 20.59 80.05 24 83.45 20.59 88.1 15.95 88.1 0 83.45 0 83.45 13.78" fill="#fff"/><path d="M30.19,0,25.55,4.65V24h4.64V15.1h7l4.65-4.65V4.65L37.16,0Zm7,10.45h-7V4.65h7Z" fill="#fff"/><path d="M53.41,0,48.77,4.65V19.35L53.41,24h7L65,19.35V4.65L60.38,0Zm7,19.35h-7V4.64h7Z" fill="#fff"/><rect width="6.97" height="4.65" fill="#fff"/><polygon points="109 4.64 109 0 99.71 0 95.07 4.64 95.07 19.35 99.71 24 109 24 109 19.35 99.71 19.35 99.71 14.32 103.19 14.32 107.84 9.68 99.71 9.68 99.71 4.64 109 4.64" fill="#fff"/><path d="M23.45,42a4.58,4.58,0,0,1,4.69-4.73,4.14,4.14,0,0,1,3.64,1.93l-1.17.62a2.9,2.9,0,0,0-2.47-1.33,3.52,3.52,0,0,0,0,7,2.9,2.9,0,0,0,2.47-1.33l1.17.62a4.16,4.16,0,0,1-3.64,1.93A4.58,4.58,0,0,1,23.45,42Z" fill="#272423"/><path d="M34.24,37.42h1.39v5.53a2.46,2.46,0,1,0,4.92,0V37.42h1.39V43c0,2.28-1.28,3.76-3.84,3.76s-3.86-1.5-3.86-3.74Z" fill="#272423"/><path d="M45.3,44.22a3.86,3.86,0,0,0,2.88,1.29c1.48,0,2-.75,2-1.41,0-1-1-1.23-2.21-1.54-1.47-.38-3.17-.81-3.17-2.68,0-1.51,1.33-2.61,3.24-2.61a4.49,4.49,0,0,1,3.33,1.28l-.8,1a3.57,3.57,0,0,0-2.65-1.07c-1,0-1.71.52-1.71,1.29s1,1.08,2.13,1.37c1.5.4,3.24.86,3.24,2.81,0,1.43-1,2.76-3.46,2.76a4.68,4.68,0,0,1-3.61-1.45Z" fill="#272423"/><path d="M56.51,38.62H53.67V37.42h7v1.21H57.88v7.94H56.51Z" fill="#272423"/><path d="M67.46,37.27A4.5,4.5,0,0,1,72.07,42a4.61,4.61,0,1,1-9.22,0A4.5,4.5,0,0,1,67.46,37.27Zm0,1.22A3.2,3.2,0,0,0,64.26,42a3.21,3.21,0,1,0,6.39,0A3.22,3.22,0,0,0,67.46,38.49Z" fill="#272423"/><path d="M82.7,39.3l-3,7.27h-.58l-3-7.27v7.27H74.83V37.42h2L79.45,44l2.66-6.57h2v9.15H82.7Z" fill="#272423"/></g></g></svg>