<svg xmlns="http://www.w3.org/2000/svg" viewBox="0 0 380 353"><title>wallet-infographic-black</title><g id="Layer_2" data-name="Layer 2"><g id="Layer_1-2" data-name="Layer 1"><path d="M378.4,235l-58.11-60.16a5.14,5.14,0,0,0-7.2-.51l-9.49,9.07a4.39,4.39,0,0,0-1.24.46L230.11,226l-22.81,8.08a74.07,74.07,0,0,0-17.41-23.52l6.4-7-17.43.83,34.47-37.89.9,17.93,6-6.58c10.67,9.49,30.55,20.06,45.94,23.19l13.25-7.44c-17.57-4.91-38.28-13.29-51-24.7l6.39-7-18,.9,5.85-6.43a.92.92,0,0,0-.07-1.3l-2.21-2,19.57-21.51a2.94,2.94,0,0,0-.21-4.16L178.28,72.09a3,3,0,0,0-4.18.21l0,0L149.15,49.9l-.6.08-.09-.69-4.08-3.67a4.87,4.87,0,0,0-6.84.34L118.2,67.21v.19h-.09l.13.64L138,46.34a4.27,4.27,0,0,1,6-.3l29.68,26.72-97.32,107L46.66,153a4.22,4.22,0,0,1-.3-6L66.6,124.82l10.13,9.08-6,6.59,21.59-1.11-1.12-21.48-6,6.59-10.11-9.07,22.77-25-.32-.53L74.71,115,57.81,99.88l6-6.59L42.2,94.4l1.12,21.48,6-6.59,16.87,15.14L45.92,146.67a4.81,4.81,0,0,0,.34,6.81L75.94,180.2l0,0a2.94,2.94,0,0,0,.21,4.16l61.37,55.25a3,3,0,0,0,4.18-.21L161.13,218l.12-.13,2.22,2a.93.93,0,0,0,1.31-.07l10.13-11.14.84,17.33,6-6.57A66.74,66.74,0,0,1,196.2,238L117.67,265.8l-.75.26a1.3,1.3,0,0,0-.75.71c-.5,1-1.31,4.29,2,14.29,1.51,4.95,3.54,10.67,5.65,16.26l-4.8,2.35-.66.32a1.21,1.21,0,0,0-.62.74c-.36.95-.75,4.11,3.42,13,6.47,14.78,19.21,36.9,19.34,37.13l.13.22,2.49-1.14a11.74,11.74,0,0,0,1.81,3l.13.1,2.11-.94,70.5-34.32,8,13.65a5.47,5.47,0,0,0,4.62,2.77,4.46,4.46,0,0,0,2.25-.6l24.75-14.41,15.88,16.44a5.62,5.62,0,0,0,4,1.75,4.56,4.56,0,0,0,3.19-1.24l98.19-93.88a4.54,4.54,0,0,0,1.37-3.5A5.57,5.57,0,0,0,378.4,235ZM174.86,207.87l-10.53,11.58a.33.33,0,0,1-.47,0l-2.22-2,58.24-64,2.21,2a.32.32,0,0,1,.11.23.33.33,0,0,1-.08.24L178,204.39l-3.32.16Zm-36.31,30.61L77.18,183.23a1.38,1.38,0,0,1-.1-2l19.23-21.14,63.43,57.1-19.23,21.14A1.4,1.4,0,0,1,138.55,238.48ZM177.22,73.25l61.37,55.25a1.38,1.38,0,0,1,.1,2L219.45,151.6,156,94.49l19.23-21.14a1.4,1.4,0,0,1,2-.1ZM155.48,95.09l63.43,57.1-58.62,64.44-63.43-57.1ZM273.66,335.17l-29.35-30.39L257,298.61l.08,0,.14-.27v-.09a15.07,15.07,0,0,0-1.36-4c-.3-.68-.61-1.37-.93-2.2s-1.27-3-2.61-5.86L265,281.66l.09,0,.18-.26v-.1a16.2,16.2,0,0,0-1-4.46c-.24-.75-.48-1.54-.72-2.45-.84-3.28-8.31-25.34-13.1-39.38l62.95-60.18a4,4,0,0,1,2.77-1.08,5,5,0,0,1,3.59,1.57L378,235.45a5,5,0,0,1,1.43,3.29,4,4,0,0,1-1.19,3.05L280,335.67A4.55,4.55,0,0,1,273.66,335.17Zm-47.42-4.09-8-13.61,25.51-12.42,13.19,13.65L232.31,333A4.54,4.54,0,0,1,226.24,331.09Zm-81.06,21.27a14,14,0,0,1-1.53-2.66l3.2-1.46h0l103.78-51,.24-.12-.11-.24-4-8.78,1.67-.59a53.15,53.15,0,0,0,4.54,7.7l.12.16a9.43,9.43,0,0,0,3.1,3L147,351.56Zm-26.89-51.43a.73.73,0,0,1,.33-.43l5.42-2.65c3.56,9.43,7.3,18.43,9.1,22.68l-1.84.94a3.31,3.31,0,0,1,0-2.61l-.81-.22a4.07,4.07,0,0,0,.11,3.19l-1.22.62.31.61,1.2-.62c.84,1.47,2.35,2.19,3.73,1.49a2.06,2.06,0,0,0,1-1l1.51-.49a12.56,12.56,0,0,0,1.56,3.4l.05.05-.18.09,1.57,3-6.11-.82.47.91,5.87.74L137.56,335l.47.91,2.89-5.42,1.56,3,.56-.28-1.75-3.4,1.56-.8,1.75,3.4.54-.28-1.75-3.4,1.67-.85-.39-.76L143,328l-1.51-2.92,104.75-36.81,3.92,8.58L147,347.59h0l-3.55,1.62h0l-2.52,1.15c-1.34-2.34-13.08-22.89-19.19-36.86C118.36,306.39,117.75,302.34,118.29,300.93Zm-1.18-34.3,79.36-28.1c3.47,6.84,4.59,12.35,4.61,14.42l.05.66,11.22-3.83s0-.21-.06-.52c-.16-1.78-1.43-7.48-4.74-14.66l33-11.68c.89,4.91,14.39,46.62,17.44,56L141.51,320.39h0l-4,1.3h0l-2.83.92c-1.14-2.67-11.11-26-15.9-41.71-3.36-10.06-2.43-13.13-2.07-13.83A.78.78,0,0,1,117.11,266.63Zm17.12,56.45v0l-.05,0a2,2,0,0,1-2.59-1.07l1.82-.93Zm7.06-2v0l117.16-41.68.27-.1-.09-.27c-4.62-14.21-16.12-50-17.45-55.72a11.37,11.37,0,0,1,.93,1.38c2.35,4,5.74,12.77,7.08,17.64,3.6,13,8.21,28.84,12,35.19l.11.18a10.15,10.15,0,0,0,2.93,3.61L141,324.63l-2,.63a15,15,0,0,1-1.3-3ZM263.07,274.5c.24.93.49,1.72.73,2.48a17.08,17.08,0,0,1,.88,3.91c-1.1-.57-2-2-2.86-3.49l-.11-.18c-3.74-6.3-8.33-22-11.92-35a98.15,98.15,0,0,0-7-17.45l3.27-1C247.38,227.54,261.89,269.88,263.07,274.5ZM140.9,325.28l1.55,3-1.56.8-1.68-3.26Zm110.86-39c1.34,2.91,2.3,5.05,2.62,5.87s.64,1.54.94,2.22a15.84,15.84,0,0,1,1.23,3.52,8.45,8.45,0,0,1-3-2.92l-.12-.15a52.28,52.28,0,0,1-4.45-7.56Zm-1.43-52c-2.17-6.37-3.74-10.95-3.79-11.09l-.09-.27-3.94,1.2a6.48,6.48,0,0,0-1.52-1.91l-.16-.11-7.72,2.73,69.33-40.38Z" fill="#272423"/><path d="M144.68,342.89a3.25,3.25,0,0,0,1.55-2l.14-.37.85,1.65.56-.28-1.05-2a1.83,1.83,0,0,1,.7-.62c.85-.43,2-.21,3.15.75l.49-.61a4.22,4.22,0,0,1-1.33-1.28,2.48,2.48,0,0,1-.28-1.25,2.67,2.67,0,0,0-.32-1.42,2.72,2.72,0,0,0-1.5-1.38l-.44.67a2,2,0,0,1,1.22,1,2.29,2.29,0,0,1,.21,1.09,2.71,2.71,0,0,0,.25,1.23,2.51,2.51,0,0,0,.49.65,2.5,2.5,0,0,0-2.4-.12,2.18,2.18,0,0,0-.63.49l-.86-1.66-.56.28,1,2a4.39,4.39,0,0,0-.26.6,3,3,0,0,1-1.41,1.84,2.17,2.17,0,0,1-3-1.13,2.25,2.25,0,0,1,.21-2.4l-.7-.41a3.22,3.22,0,0,0,3.86,4.75Z" fill="#272423"/><path d="M124.83,66.47l-1.47,1.62,4.12,3.72L129,70.19a2.69,2.69,0,0,0-.07-4A2.73,2.73,0,0,0,124.83,66.47Zm3.23.58a1.65,1.65,0,0,1,.11,2.44l-.68.74-2.57-2.32.68-.74A1.63,1.63,0,0,1,128.06,67Z" fill="#272423"/><polygon points="130.58 60.16 127.94 63.06 132.06 66.78 134.7 63.88 133.94 63.19 132.09 65.22 131.14 64.36 132.94 62.37 132.19 61.69 130.38 63.68 129.49 62.87 131.34 60.84 130.58 60.16" fill="#272423"/><path d="M133.73,56.71l-2,2.16,4.12,3.72,2-2.22a1.45,1.45,0,0,0,0-2.19,1.35,1.35,0,0,0-1.73-.13,1.23,1.23,0,0,0-.3-1.56A1.44,1.44,0,0,0,133.73,56.71Zm-.42,2,1-1.09a.61.61,0,1,1,.91.82l-1,1.09Zm3.64.27a.63.63,0,0,1,0,1l-1,1.12-1-.87L136,59A.65.65,0,0,1,136.95,58.94Z" fill="#272423"/><polygon points="136.04 54.18 140.15 57.9 140.95 57.02 136.83 53.31 136.04 54.18" fill="#272423"/><polygon points="140.88 48.87 137.9 52.13 138.67 52.83 139.76 51.63 143.11 54.65 143.91 53.77 140.56 50.75 141.65 49.56 140.88 48.87" fill="#272423"/><path d="M145.58,309.23a2.86,2.86,0,0,0-.15-1.56A2.92,2.92,0,0,0,144,306l-.56.66a2.19,2.19,0,0,1,1.17,1.27,2.46,2.46,0,0,1,.08,1.19,2.91,2.91,0,0,0,.11,1.35,2.71,2.71,0,0,0,.43.76,2.68,2.68,0,0,0-2.55-.44,2.35,2.35,0,0,0-.74.44l-.7-1.88-.63.23.83,2.25a4.76,4.76,0,0,0-.36.6,3.24,3.24,0,0,1-1.75,1.77,2.33,2.33,0,0,1-3-1.59,2.42,2.42,0,0,1,.54-2.54l-.69-.53a3.46,3.46,0,0,0,3.49,5.57,3.5,3.5,0,0,0,1.93-2l.2-.38.69,1.87.63-.23-.86-2.31a2,2,0,0,1,.83-.57c1-.35,2.14,0,3.26,1.21l.6-.59a4.53,4.53,0,0,1-1.25-1.54A2.67,2.67,0,0,1,145.58,309.23Z" fill="#272423"/><polygon points="138.58 304.86 139.21 304.63 137.78 300.77 139.55 300.13 140.98 303.98 141.59 303.75 140.17 299.9 142.06 299.21 141.74 298.34 139.85 299.04 138.42 295.17 137.8 295.39 139.23 299.26 137.46 299.91 136.03 296.04 135.4 296.27 136.68 299.72 130.27 298.05 130.65 299.08 136.81 300.64 133.13 305.8 133.51 306.83 137.31 301.42 138.58 304.86" fill="#272423"/><path d="M126.32,292l1.37-.5c.7,1.67,2.22,2.64,3.78,2.07,1.77-.65,1.68-2.36,1.55-4l4.22-1.54a4.3,4.3,0,0,1-.4,3.33l.85.32a4.81,4.81,0,0,0,.35-3.94l1.32-.48-.25-.69-1.34.49c-1-2.32-2.76-2.55-4-2.1-1.94.71-1.91,2.49-1.77,4.21l-3.77,1.38a3.56,3.56,0,0,1,.35-2.79l-.84-.34a4.37,4.37,0,0,0-.3,3.42l-1.38.51Zm7.85-6.19c.8-.29,2-.18,2.79,1.52l-4,1.47C132.85,287.49,132.92,286.28,134.16,285.82Zm-2.1,4.09c.1,1.28.09,2.41-1,2.8a2.15,2.15,0,0,1-2.63-1.48Z" fill="#272423"/><path d="M14.69,126.57A14.67,14.67,0,1,0,29.5,141.19,14.71,14.71,0,0,0,14.69,126.57ZM16.48,149H13.15V137.76l-2.56,2.62-1.89-2,4.89-4.89h2.89Z" fill="#272423"/><path d="M88,229.38A14.67,14.67,0,1,0,102.75,244,14.71,14.71,0,0,0,88,229.38Zm5.95,22.4H82.42v-2.56c6.26-4.59,8.1-6.16,8.1-8,0-1.32-1.22-2-2.5-2A5.47,5.47,0,0,0,83.93,241l-1.86-2.14a7.81,7.81,0,0,1,5.9-2.49c3.26,0,5.85,1.83,5.85,4.86,0,2.6-2.16,4.86-6.26,7.74h6.38Z" fill="#272423"/><path d="M285.93,162.65A14.67,14.67,0,1,0,271.18,148,14.71,14.71,0,0,0,285.93,162.65Zm-.29-13.53c-.63,0-1.65,0-1.87,0v-2.78c.27,0,1.28,0,1.87,0,1.67,0,2.77-.54,2.77-1.66s-1.22-1.79-2.8-1.79a5.46,5.46,0,0,0-3.83,1.57l-1.58-2a7.42,7.42,0,0,1,5.75-2.38c3.52,0,5.68,1.57,5.68,4.06a3.68,3.68,0,0,1-3.29,3.41,3.76,3.76,0,0,1,3.52,3.59c0,2.58-2.32,4.4-5.93,4.4a7.54,7.54,0,0,1-5.93-2.4l1.67-2.09a6,6,0,0,0,4.15,1.7c1.83,0,2.84-.79,2.84-1.93S287.74,149.12,285.64,149.12Z" fill="#272423"/><polygon points="157.87 102.33 156.29 100.9 156.05 101.17 157.64 102.59 157.87 102.33" fill="#272423"/><polygon points="208.28 147.71 205.13 144.88 204.9 145.14 208.05 147.97 208.28 147.71" fill="#272423"/><polygon points="189.38 130.69 186.23 127.86 185.99 128.12 189.14 130.95 189.38 130.69" fill="#272423"/><polygon points="164.18 108 161.02 105.16 160.79 105.43 163.94 108.26 164.18 108" fill="#272423"/><polygon points="170.48 113.67 167.32 110.84 167.09 111.1 170.24 113.94 170.48 113.67" fill="#272423"/><polygon points="201.98 142.04 198.83 139.2 198.59 139.46 201.75 142.3 201.98 142.04" fill="#272423"/><polygon points="183.08 125.02 179.93 122.18 179.69 122.44 182.84 125.28 183.08 125.02" fill="#272423"/><polygon points="195.68 136.36 192.53 133.53 192.29 133.79 195.44 136.63 195.68 136.36" fill="#272423"/><polygon points="176.78 119.35 173.63 116.51 173.39 116.77 176.54 119.61 176.78 119.35" fill="#272423"/><polygon points="211.33 153.56 211.6 153.79 213.15 152.09 211.44 150.55 211.2 150.81 212.65 152.12 211.33 153.56" fill="#272423"/><polygon points="187.86 179.89 190.83 176.62 190.57 176.39 187.6 179.65 187.86 179.89" fill="#272423"/><polygon points="199.73 166.84 202.7 163.58 202.43 163.34 199.47 166.6 199.73 166.84" fill="#272423"/><polygon points="163.87 205.74 164.13 205.98 167.09 202.72 166.83 202.48 163.87 205.74" fill="#272423"/><polygon points="193.8 173.36 196.76 170.1 196.5 169.86 193.53 173.13 193.8 173.36" fill="#272423"/><polygon points="181.67 186.17 181.93 186.41 184.9 183.15 184.63 182.91 181.67 186.17" fill="#272423"/><polygon points="169.8 199.22 170.06 199.46 173.03 196.19 172.76 195.96 169.8 199.22" fill="#272423"/><polygon points="175.73 192.7 176 192.93 178.96 189.67 178.7 189.44 175.73 192.7" fill="#272423"/><polygon points="205.66 160.32 208.63 157.06 208.37 156.82 205.4 160.08 205.66 160.32" fill="#272423"/><polygon points="161.16 209.24 160.9 209 159.59 210.44 158.13 209.14 157.9 209.4 159.61 210.95 161.16 209.24" fill="#272423"/><polygon points="129.78 183.61 126.63 180.78 126.39 181.04 129.54 183.87 129.78 183.61" fill="#272423"/><polygon points="136.08 189.29 132.93 186.45 132.69 186.71 135.84 189.55 136.08 189.29" fill="#272423"/><polygon points="142.38 194.96 139.23 192.12 138.99 192.38 142.14 195.22 142.38 194.96" fill="#272423"/><polygon points="148.68 200.63 145.53 197.79 145.29 198.06 148.44 200.89 148.68 200.63" fill="#272423"/><polygon points="123.48 177.94 120.33 175.1 120.09 175.36 123.24 178.2 123.48 177.94" fill="#272423"/><polygon points="110.88 166.59 107.72 163.76 107.49 164.02 110.64 166.85 110.88 166.59" fill="#272423"/><polygon points="154.98 206.3 151.83 203.47 151.59 203.73 154.75 206.57 154.98 206.3" fill="#272423"/><polygon points="117.18 172.27 114.03 169.43 113.79 169.69 116.94 172.53 117.18 172.27" fill="#272423"/><polygon points="104.34 161.18 104.57 160.92 102.99 159.5 102.75 159.76 104.34 161.18" fill="#272423"/><polygon points="171.19 185.96 172.06 185 168.04 181.37 169.35 179.93 168.39 179.06 167.07 180.5 167.16 182.33 171.19 185.96" fill="#272423"/><polygon points="176.86 177.96 175.02 178.05 176.87 179.72 177.75 178.76 176.86 177.96" fill="#272423"/><polygon points="183.61 170.92 183.61 170.92 184.96 170.86 184.89 169.51 184.8 167.68 181.49 164.69 180.61 165.65 183.47 168.24 183.61 170.92 179.33 167.06 178.45 168.02 181.76 171.01 183.61 170.92" fill="#272423"/><path d="M174.69,182.12l.87-1-1.85-1.67,1.31-1.44-.09-1.83-1.21-1.09-1.84.09-1.31,1.44.09,1.83Zm-1.83-6,1.21,1.09-1.31,1.44-1.21-1.09Z" fill="#272423"/><path d="M175,171.86l.09,1.83,3.06,2.76,1.84-.09,1.31-1.44-.09-1.83-3.06-2.76-1.84.09Zm5.33,2.19L179,175.49l-3.06-2.76,1.31-1.44Z" fill="#272423"/><polygon points="167.16 182.34 166.2 181.46 164.89 182.9 165.85 183.78 167.16 182.34" fill="#272423"/><polygon points="186.82 166.88 188.66 166.79 190.41 164.87 189.45 164 187.7 165.92 186.65 164.98 187.31 164.26 187.22 162.43 185.69 164.11 184.64 163.16 186.39 161.24 185.43 160.37 183.68 162.29 183.76 164.12 186.82 166.88" fill="#272423"/><path d="M118.19,67.4v-.19c0-1,.15-5.84,0-11.47a26.92,26.92,0,0,1,1.2-8.89,6.94,6.94,0,0,0,.18-.7c2.24-1.52,12.07-7.8,18.93-5.64l.19-.61c-7.17-2.26-17,4-19.43,5.68a.49.49,0,0,0-.32.1.85.85,0,0,1-.94.09l-.34-.23-.14.39c-.26.7-2.25,6.23-2.44,8.59-.1-.44-.21-.9-.3-1.33a85.72,85.72,0,0,0-2.86-10.1A83.75,83.75,0,0,1,110,27.51c1.78-.34,11.91-2.5,24.59-10.29l-.34-.55C121.91,24.26,112,26.47,110,26.85a49.74,49.74,0,0,1,.52-8.2c.34-9.28,2-12.76,3.57-16.12.34-.73.7-1.49,1-2.28l-.6-.25c-.33.78-.68,1.53-1,2.26-1.62,3.42-3.28,7-3.63,16.34-1.76,11.25,1.38,24.52,1.43,24.69a86.22,86.22,0,0,1,2.85,10.05c.43,2.07,1,4.33,1.57,6.73,1,4.21,2.07,8.52,2.61,12.29.13,1,.25,2.18.33,3.44,0,.32,0,.64,0,.94h0a30.09,30.09,0,0,0,.38,4.16c.49,3.72,1.09,8.34-.14,11.38-3.36,8.26-13.15,5.06-13.54,4.93-4.07-1.77-6.63-7.06-6.67-7.14-2.08-3.36-9.59-20.19-9.82-20.71-.14-.84-3.71-22-4-26.53-.3-4.35-7.65-14.2-7.95-14.6a34.49,34.49,0,0,0-4.87-5.75l0,0s-3.79-2.88-3.58-11.22l-.65,0a18,18,0,0,0,1.89,9.31,14.91,14.91,0,0,0-8.64-3.37,13.54,13.54,0,0,0-1.62.08c-.35-1.27-1.86-6.64-3.48-9a10.32,10.32,0,0,0-6.29-4.5,9.4,9.4,0,0,0-8.44,3,7.92,7.92,0,0,0-1.22,4.15c0,.66.06,1.39.12,2.13a5.39,5.39,0,0,0-2.07.26c-3.43,1.2-3.68,4.22-3.79,5.52a29.09,29.09,0,0,0,.51,6.27c.08.52.15,1,.23,1.58l.32,0-.32.06c.71,4,3.76,13.64,3.79,13.75a32.22,32.22,0,0,0,5.57,9.65c.13.14,3.21,3.56,7.2,4.12a16.35,16.35,0,0,0,6.28-.37c1.12,1.47,9,11.36,17.17,11.39,1.17-.16,3,.72,5.19,1.75,2.48,1.18,5.28,2.52,8.11,2.8.86,1.92,7.77,17.36,9.78,20.62.11.23,2.69,5.55,7,7.44a17.06,17.06,0,0,0,4.85.71c3.34,0,7.53-1.1,9.53-6,1.3-3.19.68-7.91.19-11.7-.17-1.29-.32-2.45-.37-3.35l0,0,0-.77c0-.3,0-.58-.05-.87a36.21,36.21,0,0,0-.35-3.62c-.32-2.47-.7-4.09-.71-4.11h0l0-.09-.13-.64ZM42.65,27.62l-.22.13c-1.92,1-3.35-.86-3.44-1a8.48,8.48,0,0,1-2-3.42,42.78,42.78,0,0,1-.57-5.58c.05-.4,1.85-1.66,4.09-1.77C41,19.62,41.77,23.71,42.65,27.62Zm9.08,25.93C48,53,45,49.67,44.93,49.63a31.51,31.51,0,0,1-5.44-9.42c0-.1-3.06-9.67-3.77-13.65-.07-.53-.15-1.06-.23-1.58a28.81,28.81,0,0,1-.5-6.14c.11-1.26.32-3.89,3.36-5a4.79,4.79,0,0,1,1.91-.23c0,.55.12,1.13.18,1.72-2.38.13-4.56,1.48-4.66,2.32a40.74,40.74,0,0,0,.57,5.78A8.91,8.91,0,0,0,38.5,27.2a3.76,3.76,0,0,0,2.81,1.48,3,3,0,0,0,1.42-.36l.07,0c.47,2,1,4,1.44,5.8a13.45,13.45,0,0,0,.65,1.68,7.22,7.22,0,0,1-2.81.31l0,.64h.62a6.88,6.88,0,0,0,2.5-.38c.16.33.34.67.53,1h0a9.21,9.21,0,0,1-4,.42l-.12.63a6.37,6.37,0,0,0,1.14.1A11.34,11.34,0,0,0,45.84,38L46,38l0-.09c3.33,5.88,9.86,13.53,11.47,15.39A15.41,15.41,0,0,1,51.73,53.55Zm6.58-.28-.12-.17h0C57,51.76,46.56,39.67,44.86,33.91c-1.19-4.47-2.52-10.32-3.34-15.54A12.94,12.94,0,0,0,43.93,22a5,5,0,0,0,3.52,1.86,3.79,3.79,0,0,0,1.77-.46c2.89-1.51,3.5-5,3.52-5.17v0L51.7,9.07V8.95l-.09-.08c-2.95-2.67-6.61-1.74-8-1.21A7,7,0,0,0,41,9.21a5.06,5.06,0,0,1,.86-2.06,8.7,8.7,0,0,1,7.81-2.78A9.67,9.67,0,0,1,55.5,8.6c1.51,2.18,3,7.3,3.36,8.7-2.45.34-6.18,1.42-7.55,4.8-.63,1.55-.54,5.1-.53,5.32a55.62,55.62,0,0,0,2.79,7.93c-2.39,1.43-7,.61-7,.6l-.12.63a18.49,18.49,0,0,0,3.05.26,9.08,9.08,0,0,0,4.33-.9q.59,1.35,1.24,2.72c-2.6,1-6.5-.2-6.54-.21l-.19.61a16.22,16.22,0,0,0,4.28.65,7.69,7.69,0,0,0,2.73-.47A83.64,83.64,0,0,0,65.53,55.79c.09.11.34.37.67.71h0l.06,0c1.8,1.85,6.27,6.29,7.93,7.94C66.22,63.74,58.4,53.37,58.32,53.26Zm-17.2-43.2c0-.31,1-1.18,2.65-1.8a9,9,0,0,1,3-.56,6.32,6.32,0,0,1,4.26,1.56l1,9c-.08.39-.73,3.39-3.18,4.66s-4.39-1.12-4.49-1.25a11,11,0,0,1-2.59-4.42A54.94,54.94,0,0,1,41.12,10.06ZM75.18,64.57c-.62-.61-5-5-7.51-7.49a7.08,7.08,0,0,0,1.21.1,14.75,14.75,0,0,0,4.23-.73l-.19-.62c-4.34,1.32-6,.42-6.24.24-.34-.34-.58-.6-.66-.7C60.71,49.12,54.21,36.81,51.81,28.7c.72,1.74,2.11,5.15,2.68,6.88.82,2.47,3.59,4.69,3.68,4.76a5.72,5.72,0,0,0,3.58,1.55,4,4,0,0,0,2.37-.78C67,39,67.2,35.12,67.21,35l-1.72-6.33-.09-.07c-5.15-3.55-12.79-2.44-14-1.28h0a17.77,17.77,0,0,1,.49-4.94c1.88-4.66,9.11-4.55,9.2-4.55,8.28.08,15.22,10.68,15.3,10.81S84,38.7,84.25,42.87s3.43,23.07,4,26.18a25.7,25.7,0,0,1-7.65-2.68C78.38,65.33,76.48,64.45,75.18,64.57Zm-23.13-37c1.34-.78,8-1.85,12.87,1.41l1.63,6c0,.43-.31,3.84-2.81,5.6s-5-.59-5.15-.72-2.74-2.19-3.49-4.48C54.4,33.27,52.51,28.69,52.06,27.6Zm66,18.87a1.45,1.45,0,0,0,.82,0l-.07.22a28,28,0,0,0-1.22,9.09c.08,3.28.08,6.31.05,8.46-.72-3.63-1.8-8.78-1.86-9.09C115.49,54.11,116.93,49.51,118,46.47Z" fill="#272423"/><path d="M149.15,49.9h0c-1.47-11.31-2.31-25.23-2.32-25.37l-.65,0c0,.14.81,13.52,2.23,24.72l.09.69Z" fill="#272423"/><path d="M109.8,95.63a12.92,12.92,0,0,0,1.64-.11c7.68-1,7.27-6.77,7.26-6.88l-3-11.74-.21,0c-4.22-.72-12.65.83-15.21,3.34l-.12.12,1.72,10.11A8.08,8.08,0,0,0,109.8,95.63Zm5.34-18.16,2.93,11.28c0,.21.37,5.22-6.7,6.13s-8.82-4.41-8.88-4.59l-1.66-9.74C103.3,78.32,111.12,76.87,115.14,77.47Z" fill="#272423"/><path d="M109.67,58.5c-.09,0-9.65,1.57-12.75,1.22l-.07.64a10.77,10.77,0,0,0,1.19.05,101.25,101.25,0,0,0,11.75-1.28Z" fill="#272423"/><path d="M95.94,53.94a.25.25,0,0,1,0,.26c.38-.61,7.44-4.2,12.4-4.75,1.64-.18,2.8,0,3.35.6l.47-.45c-2.91-3-15.08,2.67-16.58,4-.4.37-.26.63-.17.73Z" fill="#272423"/><path d="M101.84,56.14l0,.64c1-.06,10.07-2.43,10.46-2.53l-.16-.62C109.57,54.31,102.64,56.09,101.84,56.14Z" fill="#272423"/><path d="M285.62,50.45a4.85,4.85,0,0,1,5-5,4.42,4.42,0,0,1,3.57,1.72l-.7.45a3.56,3.56,0,0,0-2.86-1.42,4.28,4.28,0,0,0,0,8.55,3.56,3.56,0,0,0,2.86-1.42l.7.44a4.39,4.39,0,0,1-3.57,1.74A4.85,4.85,0,0,1,285.62,50.45Z" fill="#272423"/><path d="M300.32,55.31v-.83a3.09,3.09,0,0,1-2.41,1,2.37,2.37,0,0,1-2.48-2.35,2.34,2.34,0,0,1,2.48-2.34,3.07,3.07,0,0,1,2.41,1V50.38c0-1.05-.85-1.62-1.91-1.62a2.76,2.76,0,0,0-2.22,1l-.43-.53a3.45,3.45,0,0,1,2.73-1.18c1.44,0,2.58.69,2.58,2.26v5Zm0-1.39V52.38a2.67,2.67,0,0,0-2.14-1,1.75,1.75,0,1,0,0,3.49A2.65,2.65,0,0,0,300.32,53.93Z" fill="#272423"/><path d="M303.46,55.31V48.26h.76v1.21a3,3,0,0,1,2.39-1.36v.83a1.61,1.61,0,0,0-.38,0,2.7,2.7,0,0,0-2,1.26v5.14Z" fill="#272423"/><path d="M313.34,55.31V54.19a3,3,0,0,1-2.47,1.3c-1.88,0-3.17-1.43-3.17-3.69s1.29-3.71,3.17-3.71a3,3,0,0,1,2.47,1.31V45.58h.78v9.74Zm0-1.77V50.06A2.83,2.83,0,0,0,311,48.77c-1.57,0-2.48,1.31-2.48,3s.91,3,2.48,3A2.85,2.85,0,0,0,313.34,53.55Z" fill="#272423"/><path d="M320,50.45a4.85,4.85,0,0,1,5-5,4.42,4.42,0,0,1,3.57,1.72l-.7.45a3.56,3.56,0,0,0-2.86-1.42,4.28,4.28,0,0,0,0,8.55,3.56,3.56,0,0,0,2.86-1.42l.7.44a4.39,4.39,0,0,1-3.57,1.74A4.85,4.85,0,0,1,320,50.45Z" fill="#272423"/><path d="M334.66,55.31v-.83a3.09,3.09,0,0,1-2.41,1,2.37,2.37,0,0,1-2.48-2.35,2.34,2.34,0,0,1,2.48-2.34,3.07,3.07,0,0,1,2.41,1V50.38c0-1.05-.85-1.62-1.91-1.62a2.76,2.76,0,0,0-2.22,1l-.43-.53a3.45,3.45,0,0,1,2.73-1.18c1.44,0,2.58.69,2.58,2.26v5Zm0-1.39V52.38a2.67,2.67,0,0,0-2.14-1,1.75,1.75,0,1,0,0,3.49A2.65,2.65,0,0,0,334.66,53.93Z" fill="#272423"/><path d="M338.57,54.17V58h-.76V48.26h.76v1.11A3,3,0,0,1,341,48.09c1.89,0,3.17,1.43,3.17,3.69s-1.28,3.71-3.17,3.71A3,3,0,0,1,338.57,54.17Zm4.81-2.39c0-1.71-.89-3-2.48-3A2.87,2.87,0,0,0,338.57,50v3.49a2.89,2.89,0,0,0,2.33,1.28C342.48,54.8,343.38,53.49,343.38,51.78Z" fill="#272423"/><path d="M350.63,55.31v-.83a3.09,3.09,0,0,1-2.41,1,2.37,2.37,0,0,1-2.48-2.35,2.34,2.34,0,0,1,2.48-2.34,3.07,3.07,0,0,1,2.41,1V50.38c0-1.05-.85-1.62-1.91-1.62a2.76,2.76,0,0,0-2.22,1l-.43-.53a3.45,3.45,0,0,1,2.73-1.18c1.44,0,2.58.69,2.58,2.26v5Zm0-1.39V52.38a2.67,2.67,0,0,0-2.14-1,1.75,1.75,0,1,0,0,3.49A2.65,2.65,0,0,0,350.63,53.93Z" fill="#272423"/><path d="M353.36,51.78a3.46,3.46,0,0,1,3.45-3.69,2.93,2.93,0,0,1,2.51,1.2l-.53.47a2.25,2.25,0,0,0-1.94-1,2.72,2.72,0,0,0-2.67,3,2.74,2.74,0,0,0,2.67,3,2.26,2.26,0,0,0,1.94-1l.53.47a2.9,2.9,0,0,1-2.51,1.21A3.47,3.47,0,0,1,353.36,51.78Z" fill="#272423"/><path d="M360.81,46.57a.58.58,0,0,1,.59-.57.58.58,0,0,1,.59.57.59.59,0,0,1-.59.58A.6.6,0,0,1,360.81,46.57Zm.21,8.74V48.26h.76v7.05Z" fill="#272423"/><path d="M364.3,54v-5h-1.17v-.67h1.17V46.34h.78v1.93h1.44v.67h-1.44v4.9c0,.57.24,1,.73,1a1.11,1.11,0,0,0,.79-.34l.29.58a1.6,1.6,0,0,1-1.2.44C364.76,55.49,364.3,54.92,364.3,54Z" fill="#272423"/><path d="M367.85,57.37a1.77,1.77,0,0,0,.62.12c.47,0,.79-.19,1.07-.86l.56-1.26-3-7.11H368l2.58,6.16,2.55-6.16H374l-3.67,8.6a1.88,1.88,0,0,1-1.82,1.31,3,3,0,0,1-.75-.1Z" fill="#272423"/><path d="M262,48.54,260.62,50l-.77-.79,2.33-2.37h1.15v8.65H262Z" fill="#272423"/><path d="M268.56,46.71c2.41,0,3.4,2.32,3.4,4.46s-1,4.47-3.4,4.47-3.4-2.33-3.4-4.47S266.15,46.71,268.56,46.71Zm0,1.15c-1.54,0-2.07,1.62-2.07,3.31s.53,3.32,2.07,3.32,2.07-1.63,2.07-3.32S270.1,47.86,268.56,47.86Z" fill="#272423"/><path d="M265.9,62.78a11.6,11.6,0,1,1,11.66-11.6A11.64,11.64,0,0,1,265.9,62.78Zm0-22.23a10.63,10.63,0,1,0,10.68,10.63A10.67,10.67,0,0,0,265.9,40.55Z" fill="#272423"/><path d="M284.34,15.33a4.85,4.85,0,0,1,5-5A4.42,4.42,0,0,1,292.87,12l-.7.45a3.57,3.57,0,0,0-2.86-1.42,4,4,0,0,0-4.08,4.28,4.06,4.06,0,0,0,4.08,4.28,3.57,3.57,0,0,0,2.86-1.42l.7.44a4.39,4.39,0,0,1-3.57,1.74A4.85,4.85,0,0,1,284.34,15.33Z" fill="#272423"/><path d="M294.13,16.66a3.42,3.42,0,1,1,6.82,0,3.42,3.42,0,1,1-6.82,0Zm6,0a2.62,2.62,0,1,0-5.18,0,2.62,2.62,0,1,0,5.18,0Z" fill="#272423"/><path d="M311.36,20.19V15.26c0-1-.42-1.61-1.42-1.61a2.63,2.63,0,0,0-2,1.2v5.34h-.78V15.26c0-1-.41-1.61-1.42-1.61a2.72,2.72,0,0,0-2,1.21v5.33h-.76V13.14h.76v1.07A3.12,3.12,0,0,1,306,13a1.78,1.78,0,0,1,1.86,1.33A3,3,0,0,1,310.18,13c1.31,0,1.94.73,1.94,2.15v5.08Z" fill="#272423"/><path d="M315.26,19.05v3.82h-.76V13.14h.76v1.11A3,3,0,0,1,317.73,13c1.89,0,3.17,1.43,3.17,3.69s-1.28,3.71-3.17,3.71A3,3,0,0,1,315.26,19.05Zm4.81-2.39c0-1.71-.89-3-2.48-3a2.86,2.86,0,0,0-2.33,1.26V18.4a2.89,2.89,0,0,0,2.33,1.28C319.18,19.68,320.08,18.37,320.08,16.66Z" fill="#272423"/><path d="M327.32,20.19v-.83a3.09,3.09,0,0,1-2.41,1A2.37,2.37,0,0,1,322.44,18a2.34,2.34,0,0,1,2.48-2.34,3.07,3.07,0,0,1,2.41,1V15.26c0-1.05-.85-1.62-1.91-1.62a2.76,2.76,0,0,0-2.21,1l-.43-.53A3.45,3.45,0,0,1,325.51,13c1.44,0,2.58.69,2.58,2.26v5Zm0-1.39V17.26a2.66,2.66,0,0,0-2.14-1,1.75,1.75,0,1,0,0,3.49A2.65,2.65,0,0,0,327.32,18.8Z" fill="#272423"/><path d="M330.47,20.19V13.14h.76v1.21A3,3,0,0,1,333.62,13v.83a1.61,1.61,0,0,0-.38,0,2.7,2.7,0,0,0-2,1.26v5.14Z" fill="#272423"/><path d="M335.26,18.83v-5h-1.17v-.67h1.17V11.21H336v1.93h1.44v.67H336v4.9c0,.57.23,1,.73,1a1.12,1.12,0,0,0,.79-.34l.29.58a1.6,1.6,0,0,1-1.2.44C335.72,20.37,335.26,19.8,335.26,18.83Z" fill="#272423"/><path d="M347.59,20.19V15.26c0-1-.43-1.61-1.42-1.61a2.63,2.63,0,0,0-2,1.2v5.34h-.78V15.26c0-1-.41-1.61-1.42-1.61a2.72,2.72,0,0,0-2,1.21v5.33h-.76V13.14h.76v1.07A3.12,3.12,0,0,1,342.2,13a1.78,1.78,0,0,1,1.86,1.33A3,3,0,0,1,346.42,13c1.31,0,1.94.73,1.94,2.15v5.08Z" fill="#272423"/><path d="M350.32,16.66A3.51,3.51,0,0,1,353.74,13c2.16,0,3.35,1.71,3.35,3.74v.2h-5.93a2.76,2.76,0,0,0,2.77,2.8,3.12,3.12,0,0,0,2.32-1l.4.5a3.66,3.66,0,0,1-2.77,1.14A3.49,3.49,0,0,1,350.32,16.66Zm3.4-3a2.66,2.66,0,0,0-2.57,2.69h5.15A2.59,2.59,0,0,0,353.72,13.62Z" fill="#272423"/><path d="M363.83,20.19V15.42c0-1.36-.69-1.77-1.72-1.77a3,3,0,0,0-2.3,1.21v5.33h-.76V13.14h.76v1.07A3.6,3.6,0,0,1,362.37,13a2,2,0,0,1,2.23,2.29v4.93Z" fill="#272423"/><path d="M367.12,18.83v-5h-1.17v-.67h1.17V11.21h.78v1.93h1.44v.67H367.9v4.9c0,.57.23,1,.73,1a1.12,1.12,0,0,0,.79-.34l.29.58a1.6,1.6,0,0,1-1.2.44C367.58,20.37,367.12,19.8,367.12,18.83Z" fill="#272423"/><path d="M370.39,19.26l.46-.57a3,3,0,0,0,2.29,1c1.19,0,1.89-.61,1.89-1.43s-1-1.14-2-1.4c-1.19-.29-2.5-.6-2.5-2,0-1.08.92-2,2.53-2a3.26,3.26,0,0,1,2.54,1l-.42.54a2.59,2.59,0,0,0-2.11-.93c-1.1,0-1.78.55-1.78,1.28s.91,1,1.89,1.26c1.22.31,2.58.64,2.58,2.15,0,1.14-.88,2.07-2.65,2.07A3.44,3.44,0,0,1,370.39,19.26Z" fill="#272423"/><path d="M263.06,18.27a3.18,3.18,0,0,0,2.43,1.1c1.2,0,1.92-.57,1.92-1.48s-.78-1.36-2-1.36c-.35,0-.81,0-.94,0V15.36c.14,0,.6,0,.94,0,1.06,0,1.92-.39,1.92-1.28s-.83-1.35-1.86-1.35a3,3,0,0,0-2.27,1l-.69-.8a3.93,3.93,0,0,1,3.08-1.35c1.77,0,3.05.87,3.05,2.32a2.12,2.12,0,0,1-1.89,2,2.19,2.19,0,0,1,2,2.11c0,1.45-1.21,2.5-3.18,2.5a3.87,3.87,0,0,1-3.19-1.41Z" fill="#272423"/><path d="M265.68,27.66a11.6,11.6,0,1,1,11.66-11.6A11.64,11.64,0,0,1,265.68,27.66Zm0-22.23a10.63,10.63,0,1,0,10.68,10.63A10.67,10.67,0,0,0,265.68,5.43Z" fill="#272423"/></g></g></svg>