<svg xmlns="http://www.w3.org/2000/svg" width="42.49" height="42.49" viewBox="0 0 42.49 42.49"><title>win-twitter</title><g id="Layer_2" data-name="Layer 2"><g id="content"><path d="M36.28,6.21a21.27,21.27,0,1,0,0,30.08A21.32,21.32,0,0,0,36.28,6.21Zm-7.14,11q0,.26,0,.53a11.59,11.59,0,0,1-17.84,9.76,8.3,8.3,0,0,0,1,.06,8.18,8.18,0,0,0,5.06-1.74A4.08,4.08,0,0,1,13.54,23a4.08,4.08,0,0,0,1.84-.07,4.08,4.08,0,0,1-3.27-4v-.05a4.06,4.06,0,0,0,1.85.51,4.08,4.08,0,0,1-1.26-5.44,11.57,11.57,0,0,0,8.4,4.26A4.08,4.08,0,0,1,28,14.46a8.16,8.16,0,0,0,2.59-1,4.09,4.09,0,0,1-1.79,2.25,8.14,8.14,0,0,0,2.34-.64A8.28,8.28,0,0,1,29.14,17.19Z" fill="#272423"/></g></g></svg>