<svg xmlns="http://www.w3.org/2000/svg" width="42.49" height="42.49" viewBox="0 0 42.49 42.49"><title>win-instagram</title><g id="Layer_2" data-name="Layer 2"><g id="content"><path d="M36.28,6.21a21.27,21.27,0,1,0,0,30.08A21.32,21.32,0,0,0,36.28,6.21Zm-4,23.11a3,3,0,0,1-3,3H13.16a3,3,0,0,1-3-3V13.17a3,3,0,0,1,3-3H29.3a3,3,0,0,1,3,3Z" fill="#272423"/><path d="M21.23,15.38a5.86,5.86,0,1,0,5.86,5.86A5.87,5.87,0,0,0,21.23,15.38Zm0,10.42a4.56,4.56,0,1,1,4.56-4.56A4.56,4.56,0,0,1,21.23,25.8Z" fill="#272423"/><circle cx="27.74" cy="14.73" r="1.3" fill="#272423"/></g></g></svg>